<svg xmlns="http://www.w3.org/2000/svg" width="900" height="1700" viewBox="0 0 900 1700" role="img" aria-label="Portrait product screenshot placeholder 900 by 1700">
  <defs>
    <linearGradient id="bgp" x1="0" y1="0" x2="0" y2="1">
      <stop offset="0" stop-color="#0B1220"/>
      <stop offset="1" stop-color="#16324f"/>
    </linearGradient>
  </defs>
  <rect width="900" height="1700" fill="url(#bgp)"/>
  <rect x="36" y="36" width="828" height="72" rx="16" fill="#151C2C"/>
  <rect x="60" y="58" width="220" height="28" rx="8" fill="#334155"/>
  <rect x="680" y="50" width="150" height="44" rx="10" fill="#0078D4"/>
  <rect x="36" y="128" width="828" height="180" rx="16" fill="#151C2C"/>
  <rect x="64" y="160" width="200" height="16" rx="4" fill="#64748B"/>
  <rect x="64" y="196" width="360" height="56" rx="8" fill="#E2E8F0"/>
  <rect x="36" y="332" width="400" height="220" rx="16" fill="#151C2C"/>
  <rect x="464" y="332" width="400" height="220" rx="16" fill="#151C2C"/>
  <rect x="36" y="576" width="828" height="980" rx="16" fill="#151C2C"/>
  <polyline points="90,1400 220,1180 360,1260 500,980 640,1080 800,860" fill="none" stroke="#0078D4" stroke-width="10" stroke-linecap="round"/>
  <text x="450" y="1620" text-anchor="middle" fill="#94A3B8" font-family="Segoe UI, sans-serif" font-size="28">Portrait hero 900 x 1700 - replace per project</text>
</svg>
