<svg xmlns="http://www.w3.org/2000/svg" xmlns:xlink="http://www.w3.org/1999/xlink" version="1.1" viewBox="0 0 2300 800" style="background: #111111"><defs joint-selector="defs"></defs><g joint-selector="layers"  transform="matrix(1,0,0,1,0,0)"><g ></g><g ><!--z-index:0--><!--z-index:1--><!--z-index:2--><!--z-index:3--><!--z-index:4--><!--z-index:5--><!--z-index:6--><!--z-index:7--><g   id="j_95"  transform="translate(20,756)"><g id="v-1334"><text  id="v-1335" font-size="24px" xml:space="preserve" y="0.8em" font-weight="normal" text-anchor="start" fill="#cccccc" pointer-events="none" display="block" font-family="Open Sans, Tahoma, Arial"><tspan dy="0"  display="block">Thursday, August 27, 2026 at 3:44 PM Australian Eastern Standard Time</tspan></text></g></g><!--z-index:8--><g   id="j_94"  transform="translate(20,710)"><g id="v-1332"><text  id="v-1333" font-size="36px" xml:space="preserve" y="0.8em" font-weight="normal" text-anchor="start" fill="#cccccc" pointer-events="none" display="block" font-family="Open Sans, Tahoma, Arial"><tspan dy="0"  display="block">System Context View: Blast Planning System</tspan></text></g></g><!--z-index:9--><g   id="j_96"  transform="translate(199,160)" style=""><g  id="v-1339" style="opacity: 1;"><rect  x="0" y="160" width="400" height="240" rx="70" id="v-1341" stroke-width="2" pointer-events="visiblePainted" fill="#111111" stroke="#cccccc" stroke-dasharray=""></rect><circle  cx="200" cy="88.88888888888889" r="88.88888888888889" id="v-1340" stroke-width="2" pointer-events="visiblePainted" fill="#111111" stroke="#cccccc" stroke-dasharray=""></circle><line  x1="80" y1="266.6666666666667" x2="80" y2="400" id="v-1347" stroke="#cccccc" stroke-width="1" stroke-dasharray=""></line><line  x1="320" y1="266.6666666666667" x2="320" y2="400" id="v-1348" stroke="#cccccc" stroke-width="1" stroke-dasharray=""></line><text  id="v-1342" font-size="33.599999999999994px" xml:space="preserve" y="202.5" font-weight="bold" text-anchor="middle" pointer-events="visible" font-family="Open Sans, Tahoma, Arial" fill="#cccccc" dominant-baseline="hanging" transform="matrix(1,0,0,1,200,0)"><tspan dy="0" >User</tspan></text><text  id="v-1343" font-size="16.799999999999997px" xml:space="preserve" y="244.1" text-anchor="middle" font-family="Open Sans, Tahoma, Arial" fill="#cccccc" dominant-baseline="hanging" transform="matrix(1,0,0,1,200,0)" style="display: block;"><tspan dy="0" >[Person]</tspan></text><text  id="v-1344" font-size="24px" xml:space="preserve" y="275.9" text-anchor="middle" font-family="Open Sans, Tahoma, Arial" fill="#cccccc" dominant-baseline="hanging" transform="matrix(1,0,0,1,200,0)" style="display: block;"><tspan dy="0" >Uses the Blast Planning</tspan><tspan dy="1.2em" x="0" >application to create, approve</tspan><tspan dy="1.2em" x="0" >and review blast plans.</tspan></text><g  id="v-1345" font-weight="normal" text-anchor="middle" color="#cccccc" transform="matrix(1,0,0,1,197.5,368)" display="none"><g ></g><g ></g><g ></g><g ></g></g><image  id="v-1346"></image></g></g><!--z-index:10--><g   id="j_97"  transform="translate(1649,210)" style=""><g  id="v-1355" style="opacity: 1;"><rect  id="v-1356" rx="1" ry="1" stroke-width="2" pointer-events="visiblePainted" fill="#111111" stroke="#cccccc" stroke-dasharray="" width="450" height="300"></rect><text  id="v-1357" font-size="33.599999999999994px" xml:space="preserve" y="86.9" font-weight="bold" text-anchor="middle" pointer-events="visible" font-family="Open Sans, Tahoma, Arial" fill="#cccccc" dominant-baseline="hanging" transform="matrix(1,0,0,1,225,0)"><tspan dy="0" >Microsoft Entra ID</tspan></text><text  id="v-1358" font-size="16.799999999999997px" xml:space="preserve" y="128.5" text-anchor="middle" font-family="Open Sans, Tahoma, Arial" fill="#cccccc" dominant-baseline="hanging" transform="matrix(1,0,0,1,225,0)" style="display: block;"><tspan dy="0" >[Software System]</tspan></text><text  id="v-1359" font-size="24px" xml:space="preserve" y="160.3" text-anchor="middle" font-family="Open Sans, Tahoma, Arial" fill="#cccccc" dominant-baseline="hanging" transform="matrix(1,0,0,1,225,0)" style="display: block;"><tspan dy="0" >Provides authentication and issues</tspan><tspan dy="1.2em" x="0" >access tokens.</tspan></text><g  id="v-1360" color="#cccccc" transform="matrix(1,0,0,1,222.5,268)" display="none"><g ></g><g ></g><g ></g><g ></g></g><image  id="v-1361"></image></g></g><!--z-index:11--><g   id="j_98"  transform="translate(899,210)" style=""><g  id="v-1368" style="opacity: 1;"><rect  id="v-1369" rx="1" ry="1" stroke-width="2" pointer-events="visiblePainted" fill="#111111" stroke="#cccccc" stroke-dasharray="" width="450" height="300"></rect><text  id="v-1370" font-size="33.599999999999994px" xml:space="preserve" y="86.9" font-weight="bold" text-anchor="middle" pointer-events="visible" font-family="Open Sans, Tahoma, Arial" fill="#cccccc" dominant-baseline="hanging" transform="matrix(1,0,0,1,225,0)"><tspan dy="0" >Blast Planning System</tspan></text><text  id="v-1371" font-size="16.799999999999997px" xml:space="preserve" y="128.5" text-anchor="middle" font-family="Open Sans, Tahoma, Arial" fill="#cccccc" dominant-baseline="hanging" transform="matrix(1,0,0,1,225,0)" style="display: block;"><tspan dy="0" >[Software System]</tspan></text><text  id="v-1372" font-size="24px" xml:space="preserve" y="160.3" text-anchor="middle" font-family="Open Sans, Tahoma, Arial" fill="#cccccc" dominant-baseline="hanging" transform="matrix(1,0,0,1,225,0)" style="display: block;"><tspan dy="0" >Event-sourced blast planning</tspan><tspan dy="1.2em" x="0" >reference application.</tspan></text><g  id="v-1373" color="#cccccc" transform="matrix(1,0,0,1,210,268)" display="none"><g  transform="translate(5 0)"><svg xmlns="http://www.w3.org/2000/svg" width="20" height="20" fill="currentColor" viewBox="0 0 16 16"><path fill-rule="evenodd" d="M6.5 12a5.5 5.5 0 1 0 0-11 5.5 5.5 0 0 0 0 11zM13 6.5a6.5 6.5 0 1 1-13 0 6.5 6.5 0 0 1 13 0z"></path><path d="M10.344 11.742c.03.04.062.078.098.115l3.85 3.85a1 1 0 0 0 1.415-1.414l-3.85-3.85a1.007 1.007 0 0 0-.115-.1 6.538 6.538 0 0 1-1.398 1.4z"></path><path fill-rule="evenodd" d="M6.5 3a.5.5 0 0 1 .5.5V6h2.5a.5.5 0 0 1 0 1H7v2.5a.5.5 0 0 1-1 0V7H3.5a.5.5 0 0 1 0-1H6V3.5a.5.5 0 0 1 .5-.5z"></path></svg></g><g ></g><g ></g><g ></g></g><image  id="v-1374"></image></g></g><!--z-index:12--><g   id="j_99" ><path  stroke="#cccccc" d="M 599 360 L 899 360" id="v-1387" stroke-width="2" stroke-dasharray="8 8" fill="none" style="opacity: 1;"></path><path  fill="black" stroke="black" d="M 0 0 0 0" transform="matrix(0.9999999999999999,0,0,0.9999999999999999,599,360)"></path><path  fill="#cccccc" stroke="#cccccc" d="M 20 0 L 0 10 L 20 20 z" id="v-1389" transform="matrix(-0.9999999999999999,1.224646799147353e-16,-1.224646799147353e-16,-0.9999999999999999,899.0000000000001,370)" style="opacity: 1;"></path><path  d="M 599 360 L 899 360" id="v-1388" fill="none" style="cursor: auto; pointer-events: visiblepainted;"></path><g ><g id="v-1378"  label-idx="0" cursor="move" transform="matrix(1,0,0,1,749,346.6000061035156)" style="cursor: default; opacity: 1;"><rect joint-selector="rect" id="v-1382" fill="#111111" rx="3" ry="3" pointer-events="none" width="53.895782470703125" height="33.062496185302734" transform="matrix(1,0,0,1,-26.9,-16.6)"></rect><text joint-selector="text" id="v-1381" font-size="24px" xml:space="preserve" y="0.8em" fill="#cccccc" text-anchor="middle" pointer-events="none" font-family="Open Sans, Tahoma, Arial" font-weight="normal" transform="matrix(1,0,0,1,0,-9.9)"><tspan dy="0" >Uses</tspan></text></g><g id="v-1379"  label-idx="1" cursor="move" transform="matrix(1,0,0,1,749,377)" style="cursor: default; opacity: 1;"><rect joint-selector="rect" id="v-1384" fill="#111111" rx="3" ry="3"  pointer-events="none" width="61.42420959472656" height="21.562498092651367" transform="matrix(1,0,0,1,-30.6,-10.8)" style="display: block;"></rect><text joint-selector="text" id="v-1383" font-size="16.799999999999997px" xml:space="preserve" y="0.8em" fill="#cccccc" text-anchor="middle" pointer-events="none"  font-family="Open Sans, Tahoma, Arial" font-weight="normal" transform="matrix(1,0,0,1,0,-7)" style="display: block;"><tspan dy="0" >[HTTPS]</tspan></text></g><g id="v-1380"  label-idx="2" cursor="move" transform="matrix(1,0,0,1,739,385.3999938964844)" style="cursor: default; opacity: 1;"><rect joint-selector="rect" id="v-1386" fill="#ffffff" rx="3" ry="3"  width="0" height="0" transform="matrix(1,0,0,1,0,0)" display="none"></rect><text joint-selector="text" id="v-1385" fill="#000000" font-size="14" text-anchor="middle" pointer-events="none"></text></g></g><g  display="none" style="display: none;"></g><g  id="v-1391" display="none"><g  id="v-1376"><path  end="source" d="M 26 0 L 0 13 L 26 26 z"></path></g><g  id="v-1377"><path  end="target" d="M 26 0 L 0 13 L 26 26 z"></path></g></g><g  id="v-1390" display="none"><g  id="v-1375" transform="translate(639, 360) "><g  event="remove"><circle r="11"></circle><path transform="scale(.8) translate(-16, -16)" d="M24.778,21.419 19.276,15.917 24.777,10.415 21.949,7.585 16.447,13.087 10.945,7.585 8.117,10.415 13.618,15.917 8.116,21.419 10.946,24.248 16.447,18.746 21.948,24.248z"></path><title>Remove link.</title></g><g  event="link:options"><circle r="11" transform="translate(25)"></circle><path fill="white" transform="scale(.55) translate(29, -16)" d="M31.229,17.736c0.064-0.571,0.104-1.148,0.104-1.736s-0.04-1.166-0.104-1.737l-4.377-1.557c-0.218-0.716-0.504-1.401-0.851-2.05l1.993-4.192c-0.725-0.91-1.549-1.734-2.458-2.459l-4.193,1.994c-0.647-0.347-1.334-0.632-2.049-0.849l-1.558-4.378C17.165,0.708,16.588,0.667,16,0.667s-1.166,0.041-1.737,0.105L12.707,5.15c-0.716,0.217-1.401,0.502-2.05,0.849L6.464,4.005C5.554,4.73,4.73,5.554,4.005,6.464l1.994,4.192c-0.347,0.648-0.632,1.334-0.849,2.05l-4.378,1.557C0.708,14.834,0.667,15.412,0.667,16s0.041,1.165,0.105,1.736l4.378,1.558c0.217,0.715,0.502,1.401,0.849,2.049l-1.994,4.193c0.725,0.909,1.549,1.733,2.459,2.458l4.192-1.993c0.648,0.347,1.334,0.633,2.05,0.851l1.557,4.377c0.571,0.064,1.148,0.104,1.737,0.104c0.588,0,1.165-0.04,1.736-0.104l1.558-4.377c0.715-0.218,1.399-0.504,2.049-0.851l4.193,1.993c0.909-0.725,1.733-1.549,2.458-2.458l-1.993-4.193c0.347-0.647,0.633-1.334,0.851-2.049L31.229,17.736zM16,20.871c-2.69,0-4.872-2.182-4.872-4.871c0-2.69,2.182-4.872,4.872-4.872c2.689,0,4.871,2.182,4.871,4.872C20.871,18.689,18.689,20.871,16,20.871z"></path><title>Link options.</title></g></g></g></g><!--z-index:13--><g   id="j_100" ><path  stroke="#cccccc" d="M 1349 360 L 1649 360" id="v-1410" stroke-width="2" stroke-dasharray="8 8" fill="none" style="opacity: 1;"></path><path  fill="black" stroke="black" d="M 0 0 0 0" transform="matrix(0.9999999999999999,0,0,0.9999999999999999,1349,360)"></path><path  fill="#cccccc" stroke="#cccccc" d="M 20 0 L 0 10 L 20 20 z" id="v-1412" transform="matrix(-0.9999999999999999,1.224646799147353e-16,-1.224646799147353e-16,-0.9999999999999999,1649,370)" style="opacity: 1;"></path><path  d="M 1349 360 L 1649 360" id="v-1411" fill="none" style="cursor: auto; pointer-events: visiblepainted;"></path><g ><g id="v-1401"  label-idx="0" cursor="move" transform="matrix(1,0,0,1,1499,336.5199890136719)" style="cursor: default; opacity: 1;"><rect joint-selector="rect" id="v-1405" fill="#111111" rx="3" ry="3" pointer-events="none" width="155.7288818359375" height="61.862504959106445" transform="matrix(1,0,0,1,-78.6,-31)"></rect><text joint-selector="text" id="v-1404" font-size="24px" xml:space="preserve" y="0.8em" fill="#cccccc" text-anchor="middle" pointer-events="none" font-family="Open Sans, Tahoma, Arial" font-weight="normal" transform="matrix(1,0,0,1,0,-24.3)"><tspan dy="0" >Authenticates</tspan><tspan dy="1.2em" x="0" >with</tspan></text></g><g id="v-1402"  label-idx="1" cursor="move" transform="matrix(1,0,0,1,1499,391.3999938964844)" style="cursor: default; opacity: 1;"><rect joint-selector="rect" id="v-1407" fill="#111111" rx="3" ry="3"  pointer-events="none" width="159.28408813476562" height="41.72249794006348" transform="matrix(1,0,0,1,-79.3,-20.9)" style="display: block;"></rect><text joint-selector="text" id="v-1406" font-size="16.799999999999997px" xml:space="preserve" y="0.8em" fill="#cccccc" text-anchor="middle" pointer-events="none"  font-family="Open Sans, Tahoma, Arial" font-weight="normal" transform="matrix(1,0,0,1,0,-17.1)" style="display: block;"><tspan dy="0" >[OAuth 2.0 / OpenID</tspan><tspan dy="1.2em" x="0" >Connect]</tspan></text></g><g id="v-1403"  label-idx="2" cursor="move" transform="matrix(1,0,0,1,1489,409.8800048828125)" style="cursor: default; opacity: 1;"><rect joint-selector="rect" id="v-1409" fill="#ffffff" rx="3" ry="3"  width="0" height="0" transform="matrix(1,0,0,1,0,0)" display="none"></rect><text joint-selector="text" id="v-1408" fill="#000000" font-size="14" text-anchor="middle" pointer-events="none"></text></g></g><g  display="none" style="display: none;"></g><g  id="v-1414" display="none"><g  id="v-1399"><path  end="source" d="M 26 0 L 0 13 L 26 26 z"></path></g><g  id="v-1400"><path  end="target" d="M 26 0 L 0 13 L 26 26 z"></path></g></g><g  id="v-1413" display="none"><g  id="v-1398" transform="translate(1389, 360) "><g  event="remove"><circle r="11"></circle><path transform="scale(.8) translate(-16, -16)" d="M24.778,21.419 19.276,15.917 24.777,10.415 21.949,7.585 16.447,13.087 10.945,7.585 8.117,10.415 13.618,15.917 8.116,21.419 10.946,24.248 16.447,18.746 21.948,24.248z"></path><title>Remove link.</title></g><g  event="link:options"><circle r="11" transform="translate(25)"></circle><path fill="white" transform="scale(.55) translate(29, -16)" d="M31.229,17.736c0.064-0.571,0.104-1.148,0.104-1.736s-0.04-1.166-0.104-1.737l-4.377-1.557c-0.218-0.716-0.504-1.401-0.851-2.05l1.993-4.192c-0.725-0.91-1.549-1.734-2.458-2.459l-4.193,1.994c-0.647-0.347-1.334-0.632-2.049-0.849l-1.558-4.378C17.165,0.708,16.588,0.667,16,0.667s-1.166,0.041-1.737,0.105L12.707,5.15c-0.716,0.217-1.401,0.502-2.05,0.849L6.464,4.005C5.554,4.73,4.73,5.554,4.005,6.464l1.994,4.192c-0.347,0.648-0.632,1.334-0.849,2.05l-4.378,1.557C0.708,14.834,0.667,15.412,0.667,16s0.041,1.165,0.105,1.736l4.378,1.558c0.217,0.715,0.502,1.401,0.849,2.049l-1.994,4.193c0.725,0.909,1.549,1.733,2.459,2.458l4.192-1.993c0.648,0.347,1.334,0.633,2.05,0.851l1.557,4.377c0.571,0.064,1.148,0.104,1.737,0.104c0.588,0,1.165-0.04,1.736-0.104l1.558-4.377c0.715-0.218,1.399-0.504,2.049-0.851l4.193,1.993c0.909-0.725,1.733-1.549,2.458-2.458l-1.993-4.193c0.347-0.647,0.633-1.334,0.851-2.049L31.229,17.736zM16,20.871c-2.69,0-4.872-2.182-4.872-4.871c0-2.69,2.182-4.872,4.872-4.872c2.689,0,4.871,2.182,4.871,4.872C20.871,18.689,18.689,20.871,16,20.871z"></path><title>Link options.</title></g></g></g></g><!--z-index:14--><!--z-index:15--><!--z-index:16--><!--z-index:17--><!--z-index:18--><!--z-index:19--><!--z-index:20--><!--z-index:21--><!--z-index:22--><!--z-index:23--><!--z-index:24--><!--z-index:25--><!--z-index:26--><!--z-index:27--><!--z-index:28--><!--z-index:29--><!--z-index:30--><!--z-index:31--><!--z-index:32--><!--z-index:33--><!--z-index:34--><!--z-index:35--><!--z-index:36--><!--z-index:37--><!--z-index:38--><!--z-index:39--><!--z-index:40--><!--z-index:41--><!--z-index:42--></g><g ></g><g ></g><g ></g></g></svg>