<svg xmlns="http://www.w3.org/2000/svg" xmlns:xlink="http://www.w3.org/1999/xlink" version="1.1" viewBox="0 0 3070 2019" style="background: #111111"><defs joint-selector="defs"></defs><g joint-selector="layers"  transform="matrix(1,0,0,1,0,0)"><g ></g><g ><!--z-index:0--><!--z-index:1--><!--z-index:2--><!--z-index:3--><!--z-index:4--><!--z-index:5--><!--z-index:6--><!--z-index:7--><!--z-index:8--><!--z-index:9--><!--z-index:10--><!--z-index:11--><!--z-index:12--><!--z-index:13--><!--z-index:14--><!--z-index:15--><!--z-index:16--><!--z-index:17--><!--z-index:18--><g   id="j_141"  transform="translate(20,1975)"><g id="v-1987"><text  id="v-1988" font-size="24px" xml:space="preserve" y="0.8em" font-weight="normal" text-anchor="start" fill="#cccccc" pointer-events="none" display="block" font-family="Open Sans, Tahoma, Arial"><tspan dy="0" >Thursday, August 27, 2026 at 3:44 PM Australian Eastern Standard Time</tspan></text></g></g><!--z-index:19--><g   id="j_140"  transform="translate(20,1941)"><g id="v-1985"><text  id="v-1986" font-size="24px" xml:space="preserve" y="0.8em" font-weight="normal" text-anchor="start" fill="#cccccc" pointer-events="none" display="block" font-family="Open Sans, Tahoma, Arial"><tspan dy="0" >Create a blast plan and asynchronously project it into the read model.</tspan></text></g></g><!--z-index:20--><g   id="j_139"  transform="translate(20,1895)"><g id="v-1983"><text  id="v-1984" font-size="36px" xml:space="preserve" y="0.8em" font-weight="normal" text-anchor="start" fill="#cccccc" pointer-events="none" display="block" font-family="Open Sans, Tahoma, Arial"><tspan dy="0" >Dynamic View: Blast Planning System</tspan></text></g></g><!--z-index:21--><g   id="j_142"  transform="translate(199,262)" style=""><g  id="v-1992" style="opacity: 1;"><rect  x="0" y="160" width="400" height="240" rx="70" id="v-1994" stroke-width="2" pointer-events="visiblePainted" fill="#111111" stroke="#cccccc" stroke-dasharray=""></rect><circle  cx="200" cy="88.88888888888889" r="88.88888888888889" id="v-1993" stroke-width="2" pointer-events="visiblePainted" fill="#111111" stroke="#cccccc" stroke-dasharray=""></circle><line  x1="80" y1="266.6666666666667" x2="80" y2="400" id="v-2000" stroke="#cccccc" stroke-width="1" stroke-dasharray=""></line><line  x1="320" y1="266.6666666666667" x2="320" y2="400" id="v-2001" stroke="#cccccc" stroke-width="1" stroke-dasharray=""></line><text  id="v-1995" font-size="33.599999999999994px" xml:space="preserve" y="202.5" font-weight="bold" text-anchor="middle" pointer-events="visible" font-family="Open Sans, Tahoma, Arial" fill="#cccccc" dominant-baseline="hanging" transform="matrix(1,0,0,1,200,0)"><tspan dy="0" >User</tspan></text><text  id="v-1996" font-size="16.799999999999997px" xml:space="preserve" y="244.1" text-anchor="middle" font-family="Open Sans, Tahoma, Arial" fill="#cccccc" dominant-baseline="hanging" transform="matrix(1,0,0,1,200,0)" style="display: block;"><tspan dy="0" >[Person]</tspan></text><text  id="v-1997" font-size="24px" xml:space="preserve" y="275.9" text-anchor="middle" font-family="Open Sans, Tahoma, Arial" fill="#cccccc" dominant-baseline="hanging" transform="matrix(1,0,0,1,200,0)" style="display: block;"><tspan dy="0" >Uses the Blast Planning</tspan><tspan dy="1.2em" x="0" >application to create, approve</tspan><tspan dy="1.2em" x="0" >and review blast plans.</tspan></text><g  id="v-1998" font-weight="normal" text-anchor="middle" color="#cccccc" transform="matrix(1,0,0,1,197.5,368)" display="none"><g ></g><g ></g><g ></g><g ></g></g><image  id="v-1999"></image></g></g><!--z-index:22--><g   id="j_144"  transform="translate(879,142)" style=""><g id="v-2015"><rect  id="v-2016" width="1990" height="1619" rx="0" ry="0" stroke-width="2" pointer-events="none" stroke="#cccccc" fill="#111111" stroke-dasharray=""></rect><text  id="v-2017" font-size="33.599999999999994px" xml:space="preserve" y="1580" font-weight="bold" text-anchor="start" pointer-events="visible" font-family="Open Sans, Tahoma, Arial" fill="#cccccc" transform="matrix(1,0,0,1,15,0)"><tspan dy="0" >Blast Planning System</tspan></text><text  id="v-2018" font-size="16.799999999999997px" xml:space="preserve" y="1604" font-weight="normal" text-anchor="start" pointer-events="visible" font-family="Open Sans, Tahoma, Arial" fill="#cccccc" transform="matrix(1,0,0,1,15,0)"><tspan dy="0" >[Software System]</tspan></text><image  id="v-2019" pointer-events="visible"></image></g></g><!--z-index:23--><g   id="j_143"  transform="translate(899,312)" style=""><g  id="v-2008" style="opacity: 1;"><rect  id="v-2009" rx="1" ry="1" stroke-width="2" pointer-events="visiblePainted" fill="#111111" stroke="#cccccc" stroke-dasharray="" width="450" height="300"></rect><text  id="v-2010" font-size="33.599999999999994px" xml:space="preserve" y="86.9" font-weight="bold" text-anchor="middle" pointer-events="visible" font-family="Open Sans, Tahoma, Arial" fill="#cccccc" dominant-baseline="hanging" transform="matrix(1,0,0,1,225,0)"><tspan dy="0" >Blast Planning Web UI</tspan></text><text  id="v-2011" font-size="16.799999999999997px" xml:space="preserve" y="128.5" text-anchor="middle" font-family="Open Sans, Tahoma, Arial" fill="#cccccc" dominant-baseline="hanging" transform="matrix(1,0,0,1,225,0)" style="display: block;"><tspan dy="0" >[Container: Angular]</tspan></text><text  id="v-2012" font-size="24px" xml:space="preserve" y="160.3" text-anchor="middle" font-family="Open Sans, Tahoma, Arial" fill="#cccccc" dominant-baseline="hanging" transform="matrix(1,0,0,1,225,0)" style="display: block;"><tspan dy="0" >Provides the browser-based user</tspan><tspan dy="1.2em" x="0" >interface for managing blast plans.</tspan></text><g  id="v-2013" color="#cccccc" transform="matrix(1,0,0,1,222.5,268)" display="none"><g ></g><g ></g><g ></g><g ></g></g><image  id="v-2014"></image></g></g><!--z-index:24--><g   id="j_145"  transform="translate(1649,312)" style=""><g  id="v-2029" style="opacity: 1;"><rect  id="v-2030" rx="1" ry="1" stroke-width="2" pointer-events="visiblePainted" fill="#111111" stroke="#cccccc" stroke-dasharray="" width="450" height="300"></rect><text  id="v-2031" font-size="33.599999999999994px" xml:space="preserve" y="43.70000000000002" font-weight="bold" text-anchor="middle" pointer-events="visible" font-family="Open Sans, Tahoma, Arial" fill="#cccccc" dominant-baseline="hanging" transform="matrix(1,0,0,1,225,0)"><tspan dy="0" >Blast Planning API</tspan></text><text  id="v-2032" font-size="16.799999999999997px" xml:space="preserve" y="85.30000000000001" text-anchor="middle" font-family="Open Sans, Tahoma, Arial" fill="#cccccc" dominant-baseline="hanging" transform="matrix(1,0,0,1,225,0)" style="display: block;"><tspan dy="0" >[Container: .NET 10 / ASP.NET Core]</tspan></text><text  id="v-2033" font-size="24px" xml:space="preserve" y="117.10000000000001" text-anchor="middle" font-family="Open Sans, Tahoma, Arial" fill="#cccccc" dominant-baseline="hanging" transform="matrix(1,0,0,1,225,0)" style="display: block;"><tspan dy="0" >Handles commands and queries</tspan><tspan dy="1.2em" x="0" >for blast plans. Commands are</tspan><tspan dy="1.2em" x="0" >persisted as domain events and</tspan><tspan dy="1.2em" x="0" >queries are served from the read</tspan><tspan dy="1.2em" x="0" >model.</tspan></text><g  id="v-2034" color="#cccccc" transform="matrix(1,0,0,1,222.5,268)" display="none"><g ></g><g ></g><g ></g><g ></g></g><image  id="v-2035"></image></g></g><!--z-index:25--><g   id="j_146"  transform="translate(1649,1212)" style=""><g  id="v-2045" style="opacity: 1;"><rect  id="v-2046" rx="1" ry="1" stroke-width="2" pointer-events="visiblePainted" fill="#111111" stroke="#cccccc" stroke-dasharray="" width="450" height="300"></rect><text  id="v-2047" font-size="33.599999999999994px" xml:space="preserve" y="72.5" font-weight="bold" text-anchor="middle" pointer-events="visible" font-family="Open Sans, Tahoma, Arial" fill="#cccccc" dominant-baseline="hanging" transform="matrix(1,0,0,1,225,0)"><tspan dy="0" >Projection Function</tspan></text><text  id="v-2048" font-size="16.799999999999997px" xml:space="preserve" y="114.1" text-anchor="middle" font-family="Open Sans, Tahoma, Arial" fill="#cccccc" dominant-baseline="hanging" transform="matrix(1,0,0,1,225,0)" style="display: block;"><tspan dy="0" >[Container: .NET 10 / Azure Functions]</tspan></text><text  id="v-2049" font-size="24px" xml:space="preserve" y="145.89999999999998" text-anchor="middle" font-family="Open Sans, Tahoma, Arial" fill="#cccccc" dominant-baseline="hanging" transform="matrix(1,0,0,1,225,0)" style="display: block;"><tspan dy="0" >Consumes committed domain</tspan><tspan dy="1.2em" x="0" >events asynchronously and</tspan><tspan dy="1.2em" x="0" >maintains the SQL read model.</tspan></text><g  id="v-2050" color="#cccccc" transform="matrix(1,0,0,1,222.5,268)" display="none"><g ></g><g ></g><g ></g><g ></g></g><image  id="v-2051"></image></g></g><!--z-index:26--><g   id="j_147"  transform="translate(2399,162)" style=""><g  id="v-2055" style="opacity: 1;"><rect  id="v-2056" rx="1" ry="1" stroke-width="2" pointer-events="visiblePainted" fill="#111111" stroke="#cccccc" stroke-dasharray="" width="450" height="300"></rect><text  id="v-2057" font-size="33.599999999999994px" xml:space="preserve" y="86.9" font-weight="bold" text-anchor="middle" pointer-events="visible" font-family="Open Sans, Tahoma, Arial" fill="#cccccc" dominant-baseline="hanging" transform="matrix(1,0,0,1,225,0)"><tspan dy="0" >Event Store</tspan></text><text  id="v-2058" font-size="16.799999999999997px" xml:space="preserve" y="128.5" text-anchor="middle" font-family="Open Sans, Tahoma, Arial" fill="#cccccc" dominant-baseline="hanging" transform="matrix(1,0,0,1,225,0)" style="display: block;"><tspan dy="0" >[Container: Azure Cosmos DB]</tspan></text><text  id="v-2059" font-size="24px" xml:space="preserve" y="160.3" text-anchor="middle" font-family="Open Sans, Tahoma, Arial" fill="#cccccc" dominant-baseline="hanging" transform="matrix(1,0,0,1,225,0)" style="display: block;"><tspan dy="0" >Stores the immutable event</tspan><tspan dy="1.2em" x="0" >stream for blast plan aggregates.</tspan></text><g  id="v-2060" color="#cccccc" transform="matrix(1,0,0,1,222.5,268)" display="none"><g ></g><g ></g><g ></g><g ></g></g><image  id="v-2061"></image></g></g><!--z-index:27--><g   id="j_148"  transform="translate(2399,762)" style=""><g  id="v-2068" style="opacity: 1;"><rect  id="v-2069" rx="1" ry="1" stroke-width="2" pointer-events="visiblePainted" fill="#111111" stroke="#cccccc" stroke-dasharray="" width="450" height="300"></rect><text  id="v-2070" font-size="33.599999999999994px" xml:space="preserve" y="29.30000000000001" font-weight="bold" text-anchor="middle" pointer-events="visible" font-family="Open Sans, Tahoma, Arial" fill="#cccccc" dominant-baseline="hanging" transform="matrix(1,0,0,1,225,0)"><tspan dy="0" >Domain Event Bus</tspan></text><text  id="v-2071" font-size="16.799999999999997px" xml:space="preserve" y="70.9" text-anchor="middle" font-family="Open Sans, Tahoma, Arial" fill="#cccccc" dominant-baseline="hanging" transform="matrix(1,0,0,1,225,0)" style="display: block;"><tspan dy="0" >[Container: Azure Service Bus]</tspan></text><text  id="v-2072" font-size="24px" xml:space="preserve" y="102.7" text-anchor="middle" font-family="Open Sans, Tahoma, Arial" fill="#cccccc" dominant-baseline="hanging" transform="matrix(1,0,0,1,225,0)" style="display: block;"><tspan dy="0" >Distributes committed domain</tspan><tspan dy="1.2em" x="0" >events to asynchronous</tspan><tspan dy="1.2em" x="0" >consumers using the</tspan><tspan dy="1.2em" x="0" >domain-events topic and</tspan><tspan dy="1.2em" x="0" >blast-plan-projections</tspan><tspan dy="1.2em" x="0" >subscription.</tspan></text><g  id="v-2073" color="#cccccc" transform="matrix(1,0,0,1,222.5,268)" display="none"><g ></g><g ></g><g ></g><g ></g></g><image  id="v-2074"></image></g></g><!--z-index:28--><g   id="j_149"  transform="translate(2399,1362)" style=""><g  id="v-2084" style="opacity: 1;"><rect  id="v-2085" rx="1" ry="1" stroke-width="2" pointer-events="visiblePainted" fill="#111111" stroke="#cccccc" stroke-dasharray="" width="450" height="300"></rect><text  id="v-2086" font-size="33.599999999999994px" xml:space="preserve" y="86.9" font-weight="bold" text-anchor="middle" pointer-events="visible" font-family="Open Sans, Tahoma, Arial" fill="#cccccc" dominant-baseline="hanging" transform="matrix(1,0,0,1,225,0)"><tspan dy="0" >Blast Plan Read Model</tspan></text><text  id="v-2087" font-size="16.799999999999997px" xml:space="preserve" y="128.5" text-anchor="middle" font-family="Open Sans, Tahoma, Arial" fill="#cccccc" dominant-baseline="hanging" transform="matrix(1,0,0,1,225,0)" style="display: block;"><tspan dy="0" >[Container: Azure SQL Database]</tspan></text><text  id="v-2088" font-size="24px" xml:space="preserve" y="160.3" text-anchor="middle" font-family="Open Sans, Tahoma, Arial" fill="#cccccc" dominant-baseline="hanging" transform="matrix(1,0,0,1,225,0)" style="display: block;"><tspan dy="0" >Stores query-optimised blast plan</tspan><tspan dy="1.2em" x="0" >projections.</tspan></text><g  id="v-2089" color="#cccccc" transform="matrix(1,0,0,1,222.5,268)" display="none"><g ></g><g ></g><g ></g><g ></g></g><image  id="v-2090"></image></g></g><!--z-index:29--><g   id="j_150" ><path  stroke="#cccccc" d="M 599 462 L 899 462" id="v-2106" stroke-width="2" stroke-dasharray="8 8" fill="none"></path><path  fill="black" stroke="black" d="M 0 0 0 0" transform="matrix(1,0,0,1,599,462)"></path><path  fill="#cccccc" stroke="#cccccc" d="M 20 0 L 0 10 L 20 20 z" id="v-2108" transform="matrix(-1,1.2246467991473532e-16,-1.2246467991473532e-16,-1,898.9999999999998,472)"></path><path  d="M 599 462 L 899 462" id="v-2107" fill="none" style="cursor: auto; pointer-events: visiblepainted;"></path><g ><g id="v-2097"  label-idx="0" cursor="move" transform="matrix(1,0,0,1,749,448.6000061035156)" style="cursor: default;"><rect joint-selector="rect" id="v-2101" fill="#111111" rx="3" ry="3" pointer-events="none" width="174.15206909179688" height="61.42523193359375" transform="matrix(1,0,0,1,-86.3,-30.7)"></rect><text joint-selector="text" id="v-2100" font-size="24px" xml:space="preserve" y="0.8em" fill="#cccccc" text-anchor="middle" pointer-events="none" font-family="Open Sans, Tahoma, Arial" font-weight="normal" transform="matrix(1,0,0,1,0,-24.8)"><tspan dy="0" >1: 1. Enter blast</tspan><tspan dy="1.2em" x="0" >plan details</tspan></text></g><g id="v-2098"  label-idx="1" cursor="move" transform="matrix(1,0,0,1,749,493.3999938964844)" style="cursor: default;"><rect joint-selector="rect" id="v-2103" fill="#111111" rx="3" ry="3"  pointer-events="none" width="61.17230987548828" height="22.586700439453125" transform="matrix(1,0,0,1,-30.6,-11.3)" style="display: block;"></rect><text joint-selector="text" id="v-2102" font-size="16.799999999999997px" xml:space="preserve" y="0.8em" fill="#cccccc" text-anchor="middle" pointer-events="none"  font-family="Open Sans, Tahoma, Arial" font-weight="normal" transform="matrix(1,0,0,1,0,-7.2)" style="display: block;"><tspan dy="0" >[HTTPS]</tspan></text></g><g id="v-2099"  label-idx="2" cursor="move" transform="matrix(1,0,0,1,739,501.79998779296875)" style="cursor: default;"><rect joint-selector="rect" id="v-2105" fill="#ffffff" rx="3" ry="3"  width="0" height="0" transform="matrix(1,0,0,1,0,0)" display="none"></rect><text joint-selector="text" id="v-2104" fill="#000000" font-size="14" text-anchor="middle" pointer-events="none"></text></g></g><g  display="none" style="display: none;"></g><g  id="v-2110" display="none"><g  id="v-2095"><path  end="source" d="M 26 0 L 0 13 L 26 26 z"></path></g><g  id="v-2096"><path  end="target" d="M 26 0 L 0 13 L 26 26 z"></path></g></g><g  id="v-2109" display="none"><g  id="v-2094" transform="translate(639, 462.00000000000006) "><g  event="remove"><circle r="11"></circle><path transform="scale(.8) translate(-16, -16)" d="M24.778,21.419 19.276,15.917 24.777,10.415 21.949,7.585 16.447,13.087 10.945,7.585 8.117,10.415 13.618,15.917 8.116,21.419 10.946,24.248 16.447,18.746 21.948,24.248z"></path><title>Remove link.</title></g><g  event="link:options"><circle r="11" transform="translate(25)"></circle><path fill="white" transform="scale(.55) translate(29, -16)" d="M31.229,17.736c0.064-0.571,0.104-1.148,0.104-1.736s-0.04-1.166-0.104-1.737l-4.377-1.557c-0.218-0.716-0.504-1.401-0.851-2.05l1.993-4.192c-0.725-0.91-1.549-1.734-2.458-2.459l-4.193,1.994c-0.647-0.347-1.334-0.632-2.049-0.849l-1.558-4.378C17.165,0.708,16.588,0.667,16,0.667s-1.166,0.041-1.737,0.105L12.707,5.15c-0.716,0.217-1.401,0.502-2.05,0.849L6.464,4.005C5.554,4.73,4.73,5.554,4.005,6.464l1.994,4.192c-0.347,0.648-0.632,1.334-0.849,2.05l-4.378,1.557C0.708,14.834,0.667,15.412,0.667,16s0.041,1.165,0.105,1.736l4.378,1.558c0.217,0.715,0.502,1.401,0.849,2.049l-1.994,4.193c0.725,0.909,1.549,1.733,2.459,2.458l4.192-1.993c0.648,0.347,1.334,0.633,2.05,0.851l1.557,4.377c0.571,0.064,1.148,0.104,1.737,0.104c0.588,0,1.165-0.04,1.736-0.104l1.558-4.377c0.715-0.218,1.399-0.504,2.049-0.851l4.193,1.993c0.909-0.725,1.733-1.549,2.458-2.458l-1.993-4.193c0.347-0.647,0.633-1.334,0.851-2.049L31.229,17.736zM16,20.871c-2.69,0-4.872-2.182-4.872-4.871c0-2.69,2.182-4.872,4.872-4.872c2.689,0,4.871,2.182,4.871,4.872C20.871,18.689,18.689,20.871,16,20.871z"></path><title>Link options.</title></g></g></g></g><!--z-index:30--><g   id="j_151" ><path  stroke="#cccccc" d="M 1349 462 L 1649 462" id="v-2129" stroke-width="2" stroke-dasharray="8 8" fill="none"></path><path  fill="black" stroke="black" d="M 0 0 0 0" transform="matrix(1,0,0,1,1349,462)"></path><path  fill="#cccccc" stroke="#cccccc" d="M 20 0 L 0 10 L 20 20 z" id="v-2131" transform="matrix(-1,1.2246467991473532e-16,-1.2246467991473532e-16,-1,1648.9999999999998,472)"></path><path  d="M 1349 462 L 1649 462" id="v-2130" fill="none" style="cursor: auto; pointer-events: visiblepainted;"></path><g ><g id="v-2120"  label-idx="0" cursor="move" transform="matrix(1,0,0,1,1499,448.6000061035156)" style="cursor: default;"><rect joint-selector="rect" id="v-2124" fill="#111111" rx="3" ry="3" pointer-events="none" width="173.74205017089844" height="61.42523193359375" transform="matrix(1,0,0,1,-86.1,-30.7)"></rect><text joint-selector="text" id="v-2123" font-size="24px" xml:space="preserve" y="0.8em" fill="#cccccc" text-anchor="middle" pointer-events="none" font-family="Open Sans, Tahoma, Arial" font-weight="normal" transform="matrix(1,0,0,1,0,-24.8)"><tspan dy="0" >2: 2. POST blast</tspan><tspan dy="1.2em" x="0" >plan</tspan></text></g><g id="v-2121"  label-idx="1" cursor="move" transform="matrix(1,0,0,1,1499,493.3999938964844)" style="cursor: default;"><rect joint-selector="rect" id="v-2126" fill="#111111" rx="3" ry="3"  pointer-events="none" width="168.49835205078125" height="22.586700439453125" transform="matrix(1,0,0,1,-84.2,-11.3)" style="display: block;"></rect><text joint-selector="text" id="v-2125" font-size="16.799999999999997px" xml:space="preserve" y="0.8em" fill="#cccccc" text-anchor="middle" pointer-events="none"  font-family="Open Sans, Tahoma, Arial" font-weight="normal" transform="matrix(1,0,0,1,0,-7.2)" style="display: block;"><tspan dy="0" >[HTTPS / REST / JSON]</tspan></text></g><g id="v-2122"  label-idx="2" cursor="move" transform="matrix(1,0,0,1,1489,501.79998779296875)" style="cursor: default;"><rect joint-selector="rect" id="v-2128" fill="#ffffff" rx="3" ry="3"  width="0" height="0" transform="matrix(1,0,0,1,0,0)" display="none"></rect><text joint-selector="text" id="v-2127" fill="#000000" font-size="14" text-anchor="middle" pointer-events="none"></text></g></g><g  display="none" style="display: none;"></g><g  id="v-2133" display="none"><g  id="v-2118"><path  end="source" d="M 26 0 L 0 13 L 26 26 z"></path></g><g  id="v-2119"><path  end="target" d="M 26 0 L 0 13 L 26 26 z"></path></g></g><g  id="v-2132" display="none"><g  id="v-2117" transform="translate(1389, 462.00000000000006) "><g  event="remove"><circle r="11"></circle><path transform="scale(.8) translate(-16, -16)" d="M24.778,21.419 19.276,15.917 24.777,10.415 21.949,7.585 16.447,13.087 10.945,7.585 8.117,10.415 13.618,15.917 8.116,21.419 10.946,24.248 16.447,18.746 21.948,24.248z"></path><title>Remove link.</title></g><g  event="link:options"><circle r="11" transform="translate(25)"></circle><path fill="white" transform="scale(.55) translate(29, -16)" d="M31.229,17.736c0.064-0.571,0.104-1.148,0.104-1.736s-0.04-1.166-0.104-1.737l-4.377-1.557c-0.218-0.716-0.504-1.401-0.851-2.05l1.993-4.192c-0.725-0.91-1.549-1.734-2.458-2.459l-4.193,1.994c-0.647-0.347-1.334-0.632-2.049-0.849l-1.558-4.378C17.165,0.708,16.588,0.667,16,0.667s-1.166,0.041-1.737,0.105L12.707,5.15c-0.716,0.217-1.401,0.502-2.05,0.849L6.464,4.005C5.554,4.73,4.73,5.554,4.005,6.464l1.994,4.192c-0.347,0.648-0.632,1.334-0.849,2.05l-4.378,1.557C0.708,14.834,0.667,15.412,0.667,16s0.041,1.165,0.105,1.736l4.378,1.558c0.217,0.715,0.502,1.401,0.849,2.049l-1.994,4.193c0.725,0.909,1.549,1.733,2.459,2.458l4.192-1.993c0.648,0.347,1.334,0.633,2.05,0.851l1.557,4.377c0.571,0.064,1.148,0.104,1.737,0.104c0.588,0,1.165-0.04,1.736-0.104l1.558-4.377c0.715-0.218,1.399-0.504,2.049-0.851l4.193,1.993c0.909-0.725,1.733-1.549,2.458-2.458l-1.993-4.193c0.347-0.647,0.633-1.334,0.851-2.049L31.229,17.736zM16,20.871c-2.69,0-4.872-2.182-4.872-4.871c0-2.69,2.182-4.872,4.872-4.872c2.689,0,4.871,2.182,4.871,4.872C20.871,18.689,18.689,20.871,16,20.871z"></path><title>Link options.</title></g></g></g></g><!--z-index:31--><g   id="j_152" ><path  stroke="#cccccc" d="M 2099 417 L 2399 357" id="v-2149" stroke-width="2" stroke-dasharray="8 8" fill="none"></path><path  fill="black" stroke="black" d="M 0 0 0 0" transform="matrix(0.9805806618302796,-0.19611620444137426,0.19611620444137426,0.9805806618302796,2099,417)"></path><path  fill="#cccccc" stroke="#cccccc" d="M 20 0 L 0 10 L 20 20 z" id="v-2151" transform="matrix(-0.9805806618302795,0.19611620444137456,-0.19611620444137456,-0.9805806618302795,2400.9610604595914,366.80579569693595)"></path><path  d="M 2099 417 L 2399 357" id="v-2150" fill="none" style="cursor: auto; pointer-events: visiblepainted;"></path><g ><g id="v-2140"  label-idx="0" cursor="move" transform="matrix(1,0,0,1,2249,373.6000061035156)" style="cursor: default;"><rect joint-selector="rect" id="v-2144" fill="#111111" rx="3" ry="3" pointer-events="none" width="192.21005249023438" height="90.22523498535156" transform="matrix(1,0,0,1,-95.9,-45.1)"></rect><text joint-selector="text" id="v-2143" font-size="24px" xml:space="preserve" y="0.8em" fill="#cccccc" text-anchor="middle" pointer-events="none" font-family="Open Sans, Tahoma, Arial" font-weight="normal" transform="matrix(1,0,0,1,0,-39.2)"><tspan dy="0" >3: 3. Append</tspan><tspan dy="1.2em" x="0" >BlastPlanCreated</tspan><tspan dy="1.2em" x="0" >event</tspan></text></g><g id="v-2141"  label-idx="1" cursor="move" transform="matrix(1,0,0,1,2249,432.79998779296875)" style="cursor: default;"><rect joint-selector="rect" id="v-2146" fill="#111111" rx="3" ry="3"  pointer-events="none" width="136.73580932617188" height="22.586700439453125" transform="matrix(1,0,0,1,-68.4,-11.3)" style="display: block;"></rect><text joint-selector="text" id="v-2145" font-size="16.799999999999997px" xml:space="preserve" y="0.8em" fill="#cccccc" text-anchor="middle" pointer-events="none"  font-family="Open Sans, Tahoma, Arial" font-weight="normal" transform="matrix(1,0,0,1,0,-7.2)" style="display: block;"><tspan dy="0" >[Cosmos DB SDK]</tspan></text></g><g id="v-2142"  label-idx="2" cursor="move" transform="matrix(1,0,0,1,2239,441.20001220703125)" style="cursor: default;"><rect joint-selector="rect" id="v-2148" fill="#ffffff" rx="3" ry="3"  width="0" height="0" transform="matrix(1,0,0,1,0,0)" display="none"></rect><text joint-selector="text" id="v-2147" fill="#000000" font-size="14" text-anchor="middle" pointer-events="none"></text></g></g><g  display="none" style="display: none;"></g><g  id="v-2153" display="none"><g  id="v-2138"><path  end="source" d="M 26 0 L 0 13 L 26 26 z"></path></g><g  id="v-2139"><path  end="target" d="M 26 0 L 0 13 L 26 26 z"></path></g></g><g  id="v-2152" display="none"><g  id="v-2137" transform="translate(2138.223227027637, 409.15535459447267) "><g  event="remove"><circle r="11"></circle><path transform="scale(.8) translate(-16, -16)" d="M24.778,21.419 19.276,15.917 24.777,10.415 21.949,7.585 16.447,13.087 10.945,7.585 8.117,10.415 13.618,15.917 8.116,21.419 10.946,24.248 16.447,18.746 21.948,24.248z"></path><title>Remove link.</title></g><g  event="link:options"><circle r="11" transform="translate(25)"></circle><path fill="white" transform="scale(.55) translate(29, -16)" d="M31.229,17.736c0.064-0.571,0.104-1.148,0.104-1.736s-0.04-1.166-0.104-1.737l-4.377-1.557c-0.218-0.716-0.504-1.401-0.851-2.05l1.993-4.192c-0.725-0.91-1.549-1.734-2.458-2.459l-4.193,1.994c-0.647-0.347-1.334-0.632-2.049-0.849l-1.558-4.378C17.165,0.708,16.588,0.667,16,0.667s-1.166,0.041-1.737,0.105L12.707,5.15c-0.716,0.217-1.401,0.502-2.05,0.849L6.464,4.005C5.554,4.73,4.73,5.554,4.005,6.464l1.994,4.192c-0.347,0.648-0.632,1.334-0.849,2.05l-4.378,1.557C0.708,14.834,0.667,15.412,0.667,16s0.041,1.165,0.105,1.736l4.378,1.558c0.217,0.715,0.502,1.401,0.849,2.049l-1.994,4.193c0.725,0.909,1.549,1.733,2.459,2.458l4.192-1.993c0.648,0.347,1.334,0.633,2.05,0.851l1.557,4.377c0.571,0.064,1.148,0.104,1.737,0.104c0.588,0,1.165-0.04,1.736-0.104l1.558-4.377c0.715-0.218,1.399-0.504,2.049-0.851l4.193,1.993c0.909-0.725,1.733-1.549,2.458-2.458l-1.993-4.193c0.347-0.647,0.633-1.334,0.851-2.049L31.229,17.736zM16,20.871c-2.69,0-4.872-2.182-4.872-4.871c0-2.69,2.182-4.872,4.872-4.872c2.689,0,4.871,2.182,4.871,4.872C20.871,18.689,18.689,20.871,16,20.871z"></path><title>Link options.</title></g></g></g></g><!--z-index:32--><g   id="j_153" ><path  stroke="#cccccc" d="M 2099 597 L 2399 777" id="v-2172" stroke-width="2" stroke-dasharray="8 8" fill="none"></path><path  fill="black" stroke="black" d="M 0 0 0 0" transform="matrix(0.8574929254502867,0.5144957558646223,-0.5144957558646223,0.8574929254502867,2099,597)"></path><path  fill="#cccccc" stroke="#cccccc" d="M 20 0 L 0 10 L 20 20 z" id="v-2174" transform="matrix(-0.8574928911956579,-0.5144958129556659,0.5144958129556659,-0.8574928911956579,2393.855019610525,785.5749285454194)"></path><path  d="M 2099 597 L 2399 777" id="v-2173" fill="none" style="cursor: auto; pointer-events: visiblepainted;"></path><g ><g id="v-2163"  label-idx="0" cursor="move" transform="matrix(1,0,0,1,2249,673.5999755859375)" style="cursor: default;"><rect joint-selector="rect" id="v-2167" fill="#111111" rx="3" ry="3" pointer-events="none" width="192.21005249023438" height="90.22523498535156" transform="matrix(1,0,0,1,-95.9,-45.1)"></rect><text joint-selector="text" id="v-2166" font-size="24px" xml:space="preserve" y="0.8em" fill="#cccccc" text-anchor="middle" pointer-events="none" font-family="Open Sans, Tahoma, Arial" font-weight="normal" transform="matrix(1,0,0,1,0,-39.2)"><tspan dy="0" >4: 4. Publish</tspan><tspan dy="1.2em" x="0" >BlastPlanCreated</tspan><tspan dy="1.2em" x="0" >event</tspan></text></g><g id="v-2164"  label-idx="1" cursor="move" transform="matrix(1,0,0,1,2249,732.7999877929688)" style="cursor: default;"><rect joint-selector="rect" id="v-2169" fill="#111111" rx="3" ry="3"  pointer-events="none" width="149.5192413330078" height="22.586700439453125" transform="matrix(1,0,0,1,-74.8,-11.3)" style="display: block;"></rect><text joint-selector="text" id="v-2168" font-size="16.799999999999997px" xml:space="preserve" y="0.8em" fill="#cccccc" text-anchor="middle" pointer-events="none"  font-family="Open Sans, Tahoma, Arial" font-weight="normal" transform="matrix(1,0,0,1,0,-7.2)" style="display: block;"><tspan dy="0" >[Azure Service Bus]</tspan></text></g><g id="v-2165"  label-idx="2" cursor="move" transform="matrix(1,0,0,1,2239,741.2000122070312)" style="cursor: default;"><rect joint-selector="rect" id="v-2171" fill="#ffffff" rx="3" ry="3"  width="0" height="0" transform="matrix(1,0,0,1,0,0)" display="none"></rect><text joint-selector="text" id="v-2170" fill="#000000" font-size="14" text-anchor="middle" pointer-events="none"></text></g></g><g  display="none" style="display: none;"></g><g  id="v-2176" display="none"><g  id="v-2161"><path  end="source" d="M 26 0 L 0 13 L 26 26 z"></path></g><g  id="v-2162"><path  end="target" d="M 26 0 L 0 13 L 26 26 z"></path></g></g><g  id="v-2175" display="none"><g  id="v-2160" transform="translate(2133.2997170285016, 617.5798302171011) "><g  event="remove"><circle r="11"></circle><path transform="scale(.8) translate(-16, -16)" d="M24.778,21.419 19.276,15.917 24.777,10.415 21.949,7.585 16.447,13.087 10.945,7.585 8.117,10.415 13.618,15.917 8.116,21.419 10.946,24.248 16.447,18.746 21.948,24.248z"></path><title>Remove link.</title></g><g  event="link:options"><circle r="11" transform="translate(25)"></circle><path fill="white" transform="scale(.55) translate(29, -16)" d="M31.229,17.736c0.064-0.571,0.104-1.148,0.104-1.736s-0.04-1.166-0.104-1.737l-4.377-1.557c-0.218-0.716-0.504-1.401-0.851-2.05l1.993-4.192c-0.725-0.91-1.549-1.734-2.458-2.459l-4.193,1.994c-0.647-0.347-1.334-0.632-2.049-0.849l-1.558-4.378C17.165,0.708,16.588,0.667,16,0.667s-1.166,0.041-1.737,0.105L12.707,5.15c-0.716,0.217-1.401,0.502-2.05,0.849L6.464,4.005C5.554,4.73,4.73,5.554,4.005,6.464l1.994,4.192c-0.347,0.648-0.632,1.334-0.849,2.05l-4.378,1.557C0.708,14.834,0.667,15.412,0.667,16s0.041,1.165,0.105,1.736l4.378,1.558c0.217,0.715,0.502,1.401,0.849,2.049l-1.994,4.193c0.725,0.909,1.549,1.733,2.459,2.458l4.192-1.993c0.648,0.347,1.334,0.633,2.05,0.851l1.557,4.377c0.571,0.064,1.148,0.104,1.737,0.104c0.588,0,1.165-0.04,1.736-0.104l1.558-4.377c0.715-0.218,1.399-0.504,2.049-0.851l4.193,1.993c0.909-0.725,1.733-1.549,2.458-2.458l-1.993-4.193c0.347-0.647,0.633-1.334,0.851-2.049L31.229,17.736zM16,20.871c-2.69,0-4.872-2.182-4.872-4.871c0-2.69,2.182-4.872,4.872-4.872c2.689,0,4.871,2.182,4.871,4.872C20.871,18.689,18.689,20.871,16,20.871z"></path><title>Link options.</title></g></g></g></g><!--z-index:33--><g   id="j_154" ><path  stroke="#cccccc" d="M 2099 1227 L 2399 1047" id="v-2195" stroke-width="2" stroke-dasharray="8 8" fill="none"></path><path  fill="black" stroke="black" d="M 0 0 0 0" transform="matrix(0.8574930282141504,-0.5144955845914776,0.5144955845914776,0.8574930282141504,2099,1227)"></path><path  fill="#cccccc" stroke="#cccccc" d="M 20 0 L 0 10 L 20 20 z" id="v-2197" transform="matrix(-0.8574928911956577,0.5144958129556662,-0.5144958129556662,-0.8574928911956577,2404.144935869638,1055.5748682433375)"></path><path  d="M 2099 1227 L 2399 1047" id="v-2196" fill="none" style="cursor: auto; pointer-events: visiblepainted;"></path><g ><g id="v-2186"  label-idx="0" cursor="move" transform="matrix(1,0,0,1,2249,1123.5999755859375)" style="cursor: default;"><rect joint-selector="rect" id="v-2190" fill="#111111" rx="3" ry="3" pointer-events="none" width="192.21005249023438" height="90.22523498535156" transform="matrix(1,0,0,1,-95.9,-45.1)"></rect><text joint-selector="text" id="v-2189" font-size="24px" xml:space="preserve" y="0.8em" fill="#cccccc" text-anchor="middle" pointer-events="none" font-family="Open Sans, Tahoma, Arial" font-weight="normal" transform="matrix(1,0,0,1,0,-39.2)"><tspan dy="0" >5: 5. Receive</tspan><tspan dy="1.2em" x="0" >BlastPlanCreated</tspan><tspan dy="1.2em" x="0" >event</tspan></text></g><g id="v-2187"  label-idx="1" cursor="move" transform="matrix(1,0,0,1,2249,1182.800048828125)" style="cursor: default;"><rect joint-selector="rect" id="v-2192" fill="#111111" rx="3" ry="3"  pointer-events="none" width="149.5192413330078" height="22.586700439453125" transform="matrix(1,0,0,1,-74.8,-11.3)" style="display: block;"></rect><text joint-selector="text" id="v-2191" font-size="16.799999999999997px" xml:space="preserve" y="0.8em" fill="#cccccc" text-anchor="middle" pointer-events="none"  font-family="Open Sans, Tahoma, Arial" font-weight="normal" transform="matrix(1,0,0,1,0,-7.2)" style="display: block;"><tspan dy="0" >[Azure Service Bus]</tspan></text></g><g id="v-2188"  label-idx="2" cursor="move" transform="matrix(1,0,0,1,2239,1191.199951171875)" style="cursor: default;"><rect joint-selector="rect" id="v-2194" fill="#ffffff" rx="3" ry="3"  width="0" height="0" transform="matrix(1,0,0,1,0,0)" display="none"></rect><text joint-selector="text" id="v-2193" fill="#000000" font-size="14" text-anchor="middle" pointer-events="none"></text></g></g><g  display="none" style="display: none;"></g><g  id="v-2199" display="none"><g  id="v-2184"><path  end="source" d="M 26 0 L 0 13 L 26 26 z"></path></g><g  id="v-2185"><path  end="target" d="M 26 0 L 0 13 L 26 26 z"></path></g></g><g  id="v-2198" display="none"><g  id="v-2183" transform="translate(2133.2997170285016, 1206.4201697828992) "><g  event="remove"><circle r="11"></circle><path transform="scale(.8) translate(-16, -16)" d="M24.778,21.419 19.276,15.917 24.777,10.415 21.949,7.585 16.447,13.087 10.945,7.585 8.117,10.415 13.618,15.917 8.116,21.419 10.946,24.248 16.447,18.746 21.948,24.248z"></path><title>Remove link.</title></g><g  event="link:options"><circle r="11" transform="translate(25)"></circle><path fill="white" transform="scale(.55) translate(29, -16)" d="M31.229,17.736c0.064-0.571,0.104-1.148,0.104-1.736s-0.04-1.166-0.104-1.737l-4.377-1.557c-0.218-0.716-0.504-1.401-0.851-2.05l1.993-4.192c-0.725-0.91-1.549-1.734-2.458-2.459l-4.193,1.994c-0.647-0.347-1.334-0.632-2.049-0.849l-1.558-4.378C17.165,0.708,16.588,0.667,16,0.667s-1.166,0.041-1.737,0.105L12.707,5.15c-0.716,0.217-1.401,0.502-2.05,0.849L6.464,4.005C5.554,4.73,4.73,5.554,4.005,6.464l1.994,4.192c-0.347,0.648-0.632,1.334-0.849,2.05l-4.378,1.557C0.708,14.834,0.667,15.412,0.667,16s0.041,1.165,0.105,1.736l4.378,1.558c0.217,0.715,0.502,1.401,0.849,2.049l-1.994,4.193c0.725,0.909,1.549,1.733,2.459,2.458l4.192-1.993c0.648,0.347,1.334,0.633,2.05,0.851l1.557,4.377c0.571,0.064,1.148,0.104,1.737,0.104c0.588,0,1.165-0.04,1.736-0.104l1.558-4.377c0.715-0.218,1.399-0.504,2.049-0.851l4.193,1.993c0.909-0.725,1.733-1.549,2.458-2.458l-1.993-4.193c0.347-0.647,0.633-1.334,0.851-2.049L31.229,17.736zM16,20.871c-2.69,0-4.872-2.182-4.872-4.871c0-2.69,2.182-4.872,4.872-4.872c2.689,0,4.871,2.182,4.871,4.872C20.871,18.689,18.689,20.871,16,20.871z"></path><title>Link options.</title></g></g></g></g><!--z-index:34--><g   id="j_155" ><path  stroke="#cccccc" d="M 2099 1407 L 2399 1467" id="v-2215" stroke-width="2" stroke-dasharray="8 8" fill="none"></path><path  fill="black" stroke="black" d="M 0 0 0 0" transform="matrix(0.9805806748875034,0.1961161391552673,-0.1961161391552673,0.9805806748875034,2099,1407)"></path><path  fill="#cccccc" stroke="#cccccc" d="M 20 0 L 0 10 L 20 20 z" id="v-2217" transform="matrix(-0.9805806618302796,-0.19611620444137434,0.19611620444137434,-0.9805806618302796,2397.0387363707637,1476.8057870220914)"></path><path  d="M 2099 1407 L 2399 1467" id="v-2216" fill="none" style="cursor: auto; pointer-events: visiblepainted;"></path><g ><g id="v-2206"  label-idx="0" cursor="move" transform="matrix(1,0,0,1,2249,1423.5999755859375)" style="cursor: default;"><rect joint-selector="rect" id="v-2210" fill="#111111" rx="3" ry="3" pointer-events="none" width="188.02249145507812" height="61.42523193359375" transform="matrix(1,0,0,1,-93.3,-30.7)"></rect><text joint-selector="text" id="v-2209" font-size="24px" xml:space="preserve" y="0.8em" fill="#cccccc" text-anchor="middle" pointer-events="none" font-family="Open Sans, Tahoma, Arial" font-weight="normal" transform="matrix(1,0,0,1,0,-24.8)"><tspan dy="0" >6: 6. Create blast</tspan><tspan dy="1.2em" x="0" >plan projection</tspan></text></g><g id="v-2207"  label-idx="1" cursor="move" transform="matrix(1,0,0,1,2249,1468.4000244140625)" style="cursor: default;"><rect joint-selector="rect" id="v-2212" fill="#111111" rx="3" ry="3"  pointer-events="none" width="42.03635787963867" height="22.586700439453125" transform="matrix(1,0,0,1,-21,-11.3)" style="display: block;"></rect><text joint-selector="text" id="v-2211" font-size="16.799999999999997px" xml:space="preserve" y="0.8em" fill="#cccccc" text-anchor="middle" pointer-events="none"  font-family="Open Sans, Tahoma, Arial" font-weight="normal" transform="matrix(1,0,0,1,0,-7.2)" style="display: block;"><tspan dy="0" >[SQL]</tspan></text></g><g id="v-2208"  label-idx="2" cursor="move" transform="matrix(1,0,0,1,2239,1476.800048828125)" style="cursor: default;"><rect joint-selector="rect" id="v-2214" fill="#ffffff" rx="3" ry="3"  width="0" height="0" transform="matrix(1,0,0,1,0,0)" display="none"></rect><text joint-selector="text" id="v-2213" fill="#000000" font-size="14" text-anchor="middle" pointer-events="none"></text></g></g><g  display="none" style="display: none;"></g><g  id="v-2219" display="none"><g  id="v-2204"><path  end="source" d="M 26 0 L 0 13 L 26 26 z"></path></g><g  id="v-2205"><path  end="target" d="M 26 0 L 0 13 L 26 26 z"></path></g></g><g  id="v-2218" display="none"><g  id="v-2203" transform="translate(2138.223227027637, 1414.8446454055274) "><g  event="remove"><circle r="11"></circle><path transform="scale(.8) translate(-16, -16)" d="M24.778,21.419 19.276,15.917 24.777,10.415 21.949,7.585 16.447,13.087 10.945,7.585 8.117,10.415 13.618,15.917 8.116,21.419 10.946,24.248 16.447,18.746 21.948,24.248z"></path><title>Remove link.</title></g><g  event="link:options"><circle r="11" transform="translate(25)"></circle><path fill="white" transform="scale(.55) translate(29, -16)" d="M31.229,17.736c0.064-0.571,0.104-1.148,0.104-1.736s-0.04-1.166-0.104-1.737l-4.377-1.557c-0.218-0.716-0.504-1.401-0.851-2.05l1.993-4.192c-0.725-0.91-1.549-1.734-2.458-2.459l-4.193,1.994c-0.647-0.347-1.334-0.632-2.049-0.849l-1.558-4.378C17.165,0.708,16.588,0.667,16,0.667s-1.166,0.041-1.737,0.105L12.707,5.15c-0.716,0.217-1.401,0.502-2.05,0.849L6.464,4.005C5.554,4.73,4.73,5.554,4.005,6.464l1.994,4.192c-0.347,0.648-0.632,1.334-0.849,2.05l-4.378,1.557C0.708,14.834,0.667,15.412,0.667,16s0.041,1.165,0.105,1.736l4.378,1.558c0.217,0.715,0.502,1.401,0.849,2.049l-1.994,4.193c0.725,0.909,1.549,1.733,2.459,2.458l4.192-1.993c0.648,0.347,1.334,0.633,2.05,0.851l1.557,4.377c0.571,0.064,1.148,0.104,1.737,0.104c0.588,0,1.165-0.04,1.736-0.104l1.558-4.377c0.715-0.218,1.399-0.504,2.049-0.851l4.193,1.993c0.909-0.725,1.733-1.549,2.458-2.458l-1.993-4.193c0.347-0.647,0.633-1.334,0.851-2.049L31.229,17.736zM16,20.871c-2.69,0-4.872-2.182-4.872-4.871c0-2.69,2.182-4.872,4.872-4.872c2.689,0,4.871,2.182,4.871,4.872C20.871,18.689,18.689,20.871,16,20.871z"></path><title>Link options.</title></g></g></g></g><!--z-index:35--><!--z-index:36--><!--z-index:37--><!--z-index:38--><!--z-index:39--><!--z-index:40--><!--z-index:41--><!--z-index:42--></g><g ></g><g ></g><g ></g></g></svg>