<svg xmlns="http://www.w3.org/2000/svg" xmlns:xlink="http://www.w3.org/1999/xlink" version="1.1" viewBox="0 0 3070 2056" style="background: #111111"><defs joint-selector="defs"></defs><g joint-selector="layers"  transform="matrix(1,0,0,1,0,0)"><g ></g><g ><!--z-index:0--><!--z-index:1--><!--z-index:2--><!--z-index:3--><!--z-index:4--><!--z-index:5--><!--z-index:6--><!--z-index:7--><!--z-index:8--><!--z-index:9--><!--z-index:10--><!--z-index:11--><!--z-index:12--><!--z-index:13--><!--z-index:14--><!--z-index:15--><!--z-index:16--><!--z-index:17--><!--z-index:18--><!--z-index:19--><g   id="j_123"  transform="translate(20,2012)"><g id="v-1726"><text  id="v-1727" font-size="24px" xml:space="preserve" y="0.8em" font-weight="normal" text-anchor="start" fill="#cccccc" pointer-events="none" display="block" font-family="Open Sans, Tahoma, Arial"><tspan dy="0" >Thursday, August 27, 2026 at 3:44 PM Australian Eastern Standard Time</tspan></text></g></g><!--z-index:20--><g   id="j_122"  transform="translate(20,1978)"><g id="v-1724"><text  id="v-1725" font-size="24px" xml:space="preserve" y="0.8em" font-weight="normal" text-anchor="start" fill="#cccccc" pointer-events="none" display="block" font-family="Open Sans, Tahoma, Arial"><tspan dy="0" >Approve a blast plan and asynchronously update its read model.</tspan></text></g></g><!--z-index:21--><g   id="j_121"  transform="translate(20,1932)"><g id="v-1722"><text  id="v-1723" font-size="36px" xml:space="preserve" y="0.8em" font-weight="normal" text-anchor="start" fill="#cccccc" pointer-events="none" display="block" font-family="Open Sans, Tahoma, Arial"><tspan dy="0" >Dynamic View: Blast Planning System</tspan></text></g></g><!--z-index:22--><g   id="j_124"  transform="translate(200,149)" style=""><g  id="v-1731" style="opacity: 1;"><rect  x="0" y="160" width="400" height="240" rx="70" id="v-1733" stroke-width="2" pointer-events="visiblePainted" fill="#111111" stroke="#cccccc" stroke-dasharray=""></rect><circle  cx="200" cy="88.88888888888889" r="88.88888888888889" id="v-1732" stroke-width="2" pointer-events="visiblePainted" fill="#111111" stroke="#cccccc" stroke-dasharray=""></circle><line  x1="80" y1="266.6666666666667" x2="80" y2="400" id="v-1739" stroke="#cccccc" stroke-width="1" stroke-dasharray=""></line><line  x1="320" y1="266.6666666666667" x2="320" y2="400" id="v-1740" stroke="#cccccc" stroke-width="1" stroke-dasharray=""></line><text  id="v-1734" font-size="33.599999999999994px" xml:space="preserve" y="202.5" font-weight="bold" text-anchor="middle" pointer-events="visible" font-family="Open Sans, Tahoma, Arial" fill="#cccccc" dominant-baseline="hanging" transform="matrix(1,0,0,1,200,0)"><tspan dy="0" >User</tspan></text><text  id="v-1735" font-size="16.799999999999997px" xml:space="preserve" y="244.1" text-anchor="middle" font-family="Open Sans, Tahoma, Arial" fill="#cccccc" dominant-baseline="hanging" transform="matrix(1,0,0,1,200,0)" style="display: block;"><tspan dy="0" >[Person]</tspan></text><text  id="v-1736" font-size="24px" xml:space="preserve" y="275.9" text-anchor="middle" font-family="Open Sans, Tahoma, Arial" fill="#cccccc" dominant-baseline="hanging" transform="matrix(1,0,0,1,200,0)" style="display: block;"><tspan dy="0" >Uses the Blast Planning</tspan><tspan dy="1.2em" x="0" >application to create, approve</tspan><tspan dy="1.2em" x="0" >and review blast plans.</tspan></text><g  id="v-1737" font-weight="normal" text-anchor="middle" color="#cccccc" transform="matrix(1,0,0,1,197.5,368)" display="none"><g ></g><g ></g><g ></g><g ></g></g><image  id="v-1738"></image></g></g><!--z-index:23--><g   id="j_126"  transform="translate(880,179)" style=""><g id="v-1754"><rect  id="v-1755" width="1990" height="1619" rx="0" ry="0" stroke-width="2" pointer-events="none" stroke="#cccccc" fill="#111111" stroke-dasharray=""></rect><text  id="v-1756" font-size="33.599999999999994px" xml:space="preserve" y="1580" font-weight="bold" text-anchor="start" pointer-events="visible" font-family="Open Sans, Tahoma, Arial" fill="#cccccc" transform="matrix(1,0,0,1,15,0)"><tspan dy="0" >Blast Planning System</tspan></text><text  id="v-1757" font-size="16.799999999999997px" xml:space="preserve" y="1604" font-weight="normal" text-anchor="start" pointer-events="visible" font-family="Open Sans, Tahoma, Arial" fill="#cccccc" transform="matrix(1,0,0,1,15,0)"><tspan dy="0" >[Software System]</tspan></text><image  id="v-1758" pointer-events="visible"></image></g></g><!--z-index:24--><g   id="j_125"  transform="translate(900,199)" style=""><g  id="v-1747" style="opacity: 1;"><rect  id="v-1748" rx="1" ry="1" stroke-width="2" pointer-events="visiblePainted" fill="#111111" stroke="#cccccc" stroke-dasharray="" width="450" height="300"></rect><text  id="v-1749" font-size="33.599999999999994px" xml:space="preserve" y="86.9" font-weight="bold" text-anchor="middle" pointer-events="visible" font-family="Open Sans, Tahoma, Arial" fill="#cccccc" dominant-baseline="hanging" transform="matrix(1,0,0,1,225,0)"><tspan dy="0" >Blast Planning Web UI</tspan></text><text  id="v-1750" font-size="16.799999999999997px" xml:space="preserve" y="128.5" text-anchor="middle" font-family="Open Sans, Tahoma, Arial" fill="#cccccc" dominant-baseline="hanging" transform="matrix(1,0,0,1,225,0)" style="display: block;"><tspan dy="0" >[Container: Angular]</tspan></text><text  id="v-1751" font-size="24px" xml:space="preserve" y="160.3" text-anchor="middle" font-family="Open Sans, Tahoma, Arial" fill="#cccccc" dominant-baseline="hanging" transform="matrix(1,0,0,1,225,0)" style="display: block;"><tspan dy="0" >Provides the browser-based user</tspan><tspan dy="1.2em" x="0" >interface for managing blast plans.</tspan></text><g  id="v-1752" color="#cccccc" transform="matrix(1,0,0,1,222.5,268)" display="none"><g ></g><g ></g><g ></g><g ></g></g><image  id="v-1753"></image></g></g><!--z-index:25--><g   id="j_127"  transform="translate(1650,199)" style=""><g  id="v-1768" style="opacity: 1;"><rect  id="v-1769" rx="1" ry="1" stroke-width="2" pointer-events="visiblePainted" fill="#111111" stroke="#cccccc" stroke-dasharray="" width="450" height="300"></rect><text  id="v-1770" font-size="33.599999999999994px" xml:space="preserve" y="43.70000000000002" font-weight="bold" text-anchor="middle" pointer-events="visible" font-family="Open Sans, Tahoma, Arial" fill="#cccccc" dominant-baseline="hanging" transform="matrix(1,0,0,1,225,0)"><tspan dy="0" >Blast Planning API</tspan></text><text  id="v-1771" font-size="16.799999999999997px" xml:space="preserve" y="85.30000000000001" text-anchor="middle" font-family="Open Sans, Tahoma, Arial" fill="#cccccc" dominant-baseline="hanging" transform="matrix(1,0,0,1,225,0)" style="display: block;"><tspan dy="0" >[Container: .NET 10 / ASP.NET Core]</tspan></text><text  id="v-1772" font-size="24px" xml:space="preserve" y="117.10000000000001" text-anchor="middle" font-family="Open Sans, Tahoma, Arial" fill="#cccccc" dominant-baseline="hanging" transform="matrix(1,0,0,1,225,0)" style="display: block;"><tspan dy="0" >Handles commands and queries</tspan><tspan dy="1.2em" x="0" >for blast plans. Commands are</tspan><tspan dy="1.2em" x="0" >persisted as domain events and</tspan><tspan dy="1.2em" x="0" >queries are served from the read</tspan><tspan dy="1.2em" x="0" >model.</tspan></text><g  id="v-1773" color="#cccccc" transform="matrix(1,0,0,1,222.5,268)" display="none"><g ></g><g ></g><g ></g><g ></g></g><image  id="v-1774"></image></g></g><!--z-index:26--><g   id="j_128"  transform="translate(1650,1099)" style=""><g  id="v-1784" style="opacity: 1;"><rect  id="v-1785" rx="1" ry="1" stroke-width="2" pointer-events="visiblePainted" fill="#111111" stroke="#cccccc" stroke-dasharray="" width="450" height="300"></rect><text  id="v-1786" font-size="33.599999999999994px" xml:space="preserve" y="72.5" font-weight="bold" text-anchor="middle" pointer-events="visible" font-family="Open Sans, Tahoma, Arial" fill="#cccccc" dominant-baseline="hanging" transform="matrix(1,0,0,1,225,0)"><tspan dy="0" >Projection Function</tspan></text><text  id="v-1787" font-size="16.799999999999997px" xml:space="preserve" y="114.1" text-anchor="middle" font-family="Open Sans, Tahoma, Arial" fill="#cccccc" dominant-baseline="hanging" transform="matrix(1,0,0,1,225,0)" style="display: block;"><tspan dy="0" >[Container: .NET 10 / Azure Functions]</tspan></text><text  id="v-1788" font-size="24px" xml:space="preserve" y="145.89999999999998" text-anchor="middle" font-family="Open Sans, Tahoma, Arial" fill="#cccccc" dominant-baseline="hanging" transform="matrix(1,0,0,1,225,0)" style="display: block;"><tspan dy="0" >Consumes committed domain</tspan><tspan dy="1.2em" x="0" >events asynchronously and</tspan><tspan dy="1.2em" x="0" >maintains the SQL read model.</tspan></text><g  id="v-1789" color="#cccccc" transform="matrix(1,0,0,1,222.5,268)" display="none"><g ></g><g ></g><g ></g><g ></g></g><image  id="v-1790"></image></g></g><!--z-index:27--><g   id="j_129"  transform="translate(2400,199)" style=""><g  id="v-1794" style="opacity: 1;"><rect  id="v-1795" rx="1" ry="1" stroke-width="2" pointer-events="visiblePainted" fill="#111111" stroke="#cccccc" stroke-dasharray="" width="450" height="300"></rect><text  id="v-1796" font-size="33.599999999999994px" xml:space="preserve" y="86.9" font-weight="bold" text-anchor="middle" pointer-events="visible" font-family="Open Sans, Tahoma, Arial" fill="#cccccc" dominant-baseline="hanging" transform="matrix(1,0,0,1,225,0)"><tspan dy="0" >Event Store</tspan></text><text  id="v-1797" font-size="16.799999999999997px" xml:space="preserve" y="128.5" text-anchor="middle" font-family="Open Sans, Tahoma, Arial" fill="#cccccc" dominant-baseline="hanging" transform="matrix(1,0,0,1,225,0)" style="display: block;"><tspan dy="0" >[Container: Azure Cosmos DB]</tspan></text><text  id="v-1798" font-size="24px" xml:space="preserve" y="160.3" text-anchor="middle" font-family="Open Sans, Tahoma, Arial" fill="#cccccc" dominant-baseline="hanging" transform="matrix(1,0,0,1,225,0)" style="display: block;"><tspan dy="0" >Stores the immutable event</tspan><tspan dy="1.2em" x="0" >stream for blast plan aggregates.</tspan></text><g  id="v-1799" color="#cccccc" transform="matrix(1,0,0,1,222.5,268)" display="none"><g ></g><g ></g><g ></g><g ></g></g><image  id="v-1800"></image></g></g><!--z-index:28--><g   id="j_130"  transform="translate(2400,799)" style=""><g  id="v-1807" style="opacity: 1;"><rect  id="v-1808" rx="1" ry="1" stroke-width="2" pointer-events="visiblePainted" fill="#111111" stroke="#cccccc" stroke-dasharray="" width="450" height="300"></rect><text  id="v-1809" font-size="33.599999999999994px" xml:space="preserve" y="29.30000000000001" font-weight="bold" text-anchor="middle" pointer-events="visible" font-family="Open Sans, Tahoma, Arial" fill="#cccccc" dominant-baseline="hanging" transform="matrix(1,0,0,1,225,0)"><tspan dy="0" >Domain Event Bus</tspan></text><text  id="v-1810" font-size="16.799999999999997px" xml:space="preserve" y="70.9" text-anchor="middle" font-family="Open Sans, Tahoma, Arial" fill="#cccccc" dominant-baseline="hanging" transform="matrix(1,0,0,1,225,0)" style="display: block;"><tspan dy="0" >[Container: Azure Service Bus]</tspan></text><text  id="v-1811" font-size="24px" xml:space="preserve" y="102.7" text-anchor="middle" font-family="Open Sans, Tahoma, Arial" fill="#cccccc" dominant-baseline="hanging" transform="matrix(1,0,0,1,225,0)" style="display: block;"><tspan dy="0" >Distributes committed domain</tspan><tspan dy="1.2em" x="0" >events to asynchronous</tspan><tspan dy="1.2em" x="0" >consumers using the</tspan><tspan dy="1.2em" x="0" >domain-events topic and</tspan><tspan dy="1.2em" x="0" >blast-plan-projections</tspan><tspan dy="1.2em" x="0" >subscription.</tspan></text><g  id="v-1812" color="#cccccc" transform="matrix(1,0,0,1,222.5,268)" display="none"><g ></g><g ></g><g ></g><g ></g></g><image  id="v-1813"></image></g></g><!--z-index:29--><g   id="j_131"  transform="translate(2400,1399)" style=""><g  id="v-1823" style="opacity: 1;"><rect  id="v-1824" rx="1" ry="1" stroke-width="2" pointer-events="visiblePainted" fill="#111111" stroke="#cccccc" stroke-dasharray="" width="450" height="300"></rect><text  id="v-1825" font-size="33.599999999999994px" xml:space="preserve" y="86.9" font-weight="bold" text-anchor="middle" pointer-events="visible" font-family="Open Sans, Tahoma, Arial" fill="#cccccc" dominant-baseline="hanging" transform="matrix(1,0,0,1,225,0)"><tspan dy="0" >Blast Plan Read Model</tspan></text><text  id="v-1826" font-size="16.799999999999997px" xml:space="preserve" y="128.5" text-anchor="middle" font-family="Open Sans, Tahoma, Arial" fill="#cccccc" dominant-baseline="hanging" transform="matrix(1,0,0,1,225,0)" style="display: block;"><tspan dy="0" >[Container: Azure SQL Database]</tspan></text><text  id="v-1827" font-size="24px" xml:space="preserve" y="160.3" text-anchor="middle" font-family="Open Sans, Tahoma, Arial" fill="#cccccc" dominant-baseline="hanging" transform="matrix(1,0,0,1,225,0)" style="display: block;"><tspan dy="0" >Stores query-optimised blast plan</tspan><tspan dy="1.2em" x="0" >projections.</tspan></text><g  id="v-1828" color="#cccccc" transform="matrix(1,0,0,1,222.5,268)" display="none"><g ></g><g ></g><g ></g><g ></g></g><image  id="v-1829"></image></g></g><!--z-index:30--><g   id="j_132" ><path  stroke="#cccccc" d="M 600 349 L 900 349" id="v-1845" stroke-width="2" stroke-dasharray="8 8" fill="none"></path><path  fill="black" stroke="black" d="M 0 0 0 0" transform="matrix(1,0,0,1,600,349)"></path><path  fill="#cccccc" stroke="#cccccc" d="M 20 0 L 0 10 L 20 20 z" id="v-1847" transform="matrix(-1,1.2246467991473532e-16,-1.2246467991473532e-16,-1,900,359)"></path><path  d="M 600 349 L 900 349" id="v-1846" fill="none" style="cursor: auto; pointer-events: visiblepainted;"></path><g ><g id="v-1836"  label-idx="0" cursor="move" transform="matrix(1,0,0,1,750,335.6000061035156)" style="cursor: default;"><rect joint-selector="rect" id="v-1840" fill="#111111" rx="3" ry="3" pointer-events="none" width="146.7002716064453" height="62.03927993774414" transform="matrix(1,0,0,1,-73.4,-31.1)"></rect><text joint-selector="text" id="v-1839" font-size="24px" xml:space="preserve" y="0.8em" fill="#cccccc" text-anchor="middle" pointer-events="none" font-family="Open Sans, Tahoma, Arial" font-weight="normal" transform="matrix(1,0,0,1,0,-24.7)"><tspan dy="0" >1: 1. Approve</tspan><tspan dy="1.2em" x="0" >blast plan</tspan></text></g><g id="v-1837"  label-idx="1" cursor="move" transform="matrix(1,0,0,1,750,380.3999938964844)" style="cursor: default;"><rect joint-selector="rect" id="v-1842" fill="#111111" rx="3" ry="3"  pointer-events="none" width="61.20501708984375" height="23.011807441711426" transform="matrix(1,0,0,1,-30.6,-11.5)" style="display: block;"></rect><text joint-selector="text" id="v-1841" font-size="16.799999999999997px" xml:space="preserve" y="0.8em" fill="#cccccc" text-anchor="middle" pointer-events="none"  font-family="Open Sans, Tahoma, Arial" font-weight="normal" transform="matrix(1,0,0,1,0,-7)" style="display: block;"><tspan dy="0" >[HTTPS]</tspan></text></g><g id="v-1838"  label-idx="2" cursor="move" transform="matrix(1,0,0,1,740,388.79998779296875)" style="cursor: default;"><rect joint-selector="rect" id="v-1844" fill="#ffffff" rx="3" ry="3"  width="0" height="0" transform="matrix(1,0,0,1,0,0)" display="none"></rect><text joint-selector="text" id="v-1843" fill="#000000" font-size="14" text-anchor="middle" pointer-events="none"></text></g></g><g  display="none" style="display: none;"></g><g  id="v-1849" display="none"><g  id="v-1834"><path  end="source" d="M 26 0 L 0 13 L 26 26 z"></path></g><g  id="v-1835"><path  end="target" d="M 26 0 L 0 13 L 26 26 z"></path></g></g><g  id="v-1848" display="none"><g  id="v-1833" transform="translate(640, 349) "><g  event="remove"><circle r="11"></circle><path transform="scale(.8) translate(-16, -16)" d="M24.778,21.419 19.276,15.917 24.777,10.415 21.949,7.585 16.447,13.087 10.945,7.585 8.117,10.415 13.618,15.917 8.116,21.419 10.946,24.248 16.447,18.746 21.948,24.248z"></path><title>Remove link.</title></g><g  event="link:options"><circle r="11" transform="translate(25)"></circle><path fill="white" transform="scale(.55) translate(29, -16)" d="M31.229,17.736c0.064-0.571,0.104-1.148,0.104-1.736s-0.04-1.166-0.104-1.737l-4.377-1.557c-0.218-0.716-0.504-1.401-0.851-2.05l1.993-4.192c-0.725-0.91-1.549-1.734-2.458-2.459l-4.193,1.994c-0.647-0.347-1.334-0.632-2.049-0.849l-1.558-4.378C17.165,0.708,16.588,0.667,16,0.667s-1.166,0.041-1.737,0.105L12.707,5.15c-0.716,0.217-1.401,0.502-2.05,0.849L6.464,4.005C5.554,4.73,4.73,5.554,4.005,6.464l1.994,4.192c-0.347,0.648-0.632,1.334-0.849,2.05l-4.378,1.557C0.708,14.834,0.667,15.412,0.667,16s0.041,1.165,0.105,1.736l4.378,1.558c0.217,0.715,0.502,1.401,0.849,2.049l-1.994,4.193c0.725,0.909,1.549,1.733,2.459,2.458l4.192-1.993c0.648,0.347,1.334,0.633,2.05,0.851l1.557,4.377c0.571,0.064,1.148,0.104,1.737,0.104c0.588,0,1.165-0.04,1.736-0.104l1.558-4.377c0.715-0.218,1.399-0.504,2.049-0.851l4.193,1.993c0.909-0.725,1.733-1.549,2.458-2.458l-1.993-4.193c0.347-0.647,0.633-1.334,0.851-2.049L31.229,17.736zM16,20.871c-2.69,0-4.872-2.182-4.872-4.871c0-2.69,2.182-4.872,4.872-4.872c2.689,0,4.871,2.182,4.871,4.872C20.871,18.689,18.689,20.871,16,20.871z"></path><title>Link options.</title></g></g></g></g><!--z-index:31--><g   id="j_133" ><path  stroke="#cccccc" d="M 1350 349 L 1650 349" id="v-1868" stroke-width="2" stroke-dasharray="8 8" fill="none"></path><path  fill="black" stroke="black" d="M 0 0 0 0" transform="matrix(1,0,0,1,1350,349)"></path><path  fill="#cccccc" stroke="#cccccc" d="M 20 0 L 0 10 L 20 20 z" id="v-1870" transform="matrix(-1,1.2246467991473532e-16,-1.2246467991473532e-16,-1,1650,359)"></path><path  d="M 1350 349 L 1650 349" id="v-1869" fill="none" style="cursor: auto; pointer-events: visiblepainted;"></path><g ><g id="v-1859"  label-idx="0" cursor="move" transform="matrix(1,0,0,1,1500,335.6000061035156)" style="cursor: default;"><rect joint-selector="rect" id="v-1863" fill="#111111" rx="3" ry="3" pointer-events="none" width="113.06149291992188" height="90.83927154541016" transform="matrix(1,0,0,1,-56.5,-45.5)"></rect><text joint-selector="text" id="v-1862" font-size="24px" xml:space="preserve" y="0.8em" fill="#cccccc" text-anchor="middle" pointer-events="none" font-family="Open Sans, Tahoma, Arial" font-weight="normal" transform="matrix(1,0,0,1,0,-39.1)"><tspan dy="0" >2: 2. Send</tspan><tspan dy="1.2em" x="0" >approve</tspan><tspan dy="1.2em" x="0" >command</tspan></text></g><g id="v-1860"  label-idx="1" cursor="move" transform="matrix(1,0,0,1,1500,394.79998779296875)" style="cursor: default;"><rect joint-selector="rect" id="v-1865" fill="#111111" rx="3" ry="3"  pointer-events="none" width="168.5934600830078" height="23.011807441711426" transform="matrix(1,0,0,1,-84.3,-11.5)" style="display: block;"></rect><text joint-selector="text" id="v-1864" font-size="16.799999999999997px" xml:space="preserve" y="0.8em" fill="#cccccc" text-anchor="middle" pointer-events="none"  font-family="Open Sans, Tahoma, Arial" font-weight="normal" transform="matrix(1,0,0,1,0,-7)" style="display: block;"><tspan dy="0" >[HTTPS / REST / JSON]</tspan></text></g><g id="v-1861"  label-idx="2" cursor="move" transform="matrix(1,0,0,1,1490,403.20001220703125)" style="cursor: default;"><rect joint-selector="rect" id="v-1867" fill="#ffffff" rx="3" ry="3"  width="0" height="0" transform="matrix(1,0,0,1,0,0)" display="none"></rect><text joint-selector="text" id="v-1866" fill="#000000" font-size="14" text-anchor="middle" pointer-events="none"></text></g></g><g  display="none" style="display: none;"></g><g  id="v-1872" display="none"><g  id="v-1857"><path  end="source" d="M 26 0 L 0 13 L 26 26 z"></path></g><g  id="v-1858"><path  end="target" d="M 26 0 L 0 13 L 26 26 z"></path></g></g><g  id="v-1871" display="none"><g  id="v-1856" transform="translate(1390, 349) "><g  event="remove"><circle r="11"></circle><path transform="scale(.8) translate(-16, -16)" d="M24.778,21.419 19.276,15.917 24.777,10.415 21.949,7.585 16.447,13.087 10.945,7.585 8.117,10.415 13.618,15.917 8.116,21.419 10.946,24.248 16.447,18.746 21.948,24.248z"></path><title>Remove link.</title></g><g  event="link:options"><circle r="11" transform="translate(25)"></circle><path fill="white" transform="scale(.55) translate(29, -16)" d="M31.229,17.736c0.064-0.571,0.104-1.148,0.104-1.736s-0.04-1.166-0.104-1.737l-4.377-1.557c-0.218-0.716-0.504-1.401-0.851-2.05l1.993-4.192c-0.725-0.91-1.549-1.734-2.458-2.459l-4.193,1.994c-0.647-0.347-1.334-0.632-2.049-0.849l-1.558-4.378C17.165,0.708,16.588,0.667,16,0.667s-1.166,0.041-1.737,0.105L12.707,5.15c-0.716,0.217-1.401,0.502-2.05,0.849L6.464,4.005C5.554,4.73,4.73,5.554,4.005,6.464l1.994,4.192c-0.347,0.648-0.632,1.334-0.849,2.05l-4.378,1.557C0.708,14.834,0.667,15.412,0.667,16s0.041,1.165,0.105,1.736l4.378,1.558c0.217,0.715,0.502,1.401,0.849,2.049l-1.994,4.193c0.725,0.909,1.549,1.733,2.459,2.458l4.192-1.993c0.648,0.347,1.334,0.633,2.05,0.851l1.557,4.377c0.571,0.064,1.148,0.104,1.737,0.104c0.588,0,1.165-0.04,1.736-0.104l1.558-4.377c0.715-0.218,1.399-0.504,2.049-0.851l4.193,1.993c0.909-0.725,1.733-1.549,2.458-2.458l-1.993-4.193c0.347-0.647,0.633-1.334,0.851-2.049L31.229,17.736zM16,20.871c-2.69,0-4.872-2.182-4.872-4.871c0-2.69,2.182-4.872,4.872-4.872c2.689,0,4.871,2.182,4.871,4.872C20.871,18.689,18.689,20.871,16,20.871z"></path><title>Link options.</title></g></g></g></g><!--z-index:32--><g   id="j_134" ><path  stroke="#cccccc" d="M 2100 439 L 2241 495 C 2247 497.66666666666663 2253 497.66666666666663 2259 495 L 2400 439" id="v-1889" stroke-width="2" stroke-dasharray="8 8" fill="none"></path><path  fill="black" stroke="black" d="M 0 0 0 0" transform="matrix(0.9284766955435519,0.371390664708372,-0.371390664708372,0.9284766955435519,2100,439)"></path><path  fill="#cccccc" stroke="#cccccc" d="M 20 0 L 0 10 L 20 20 z" id="v-1891" transform="matrix(-0.928476707906966,0.37139063379983406,-0.37139063379983406,-0.928476707906966,2403.714005448318,448.28475844614945)"></path><path  d="M 2100 439 L 2241 495 C 2247 497.66666666666663 2253 497.66666666666663 2259 495 L 2400 439" id="v-1890" fill="none" style="cursor: auto; pointer-events: visiblepainted;"></path><g ><g id="v-1880"  label-idx="0" cursor="move" transform="matrix(1,0,0,1,2250,483.6000061035156)" style="cursor: default;"><rect joint-selector="rect" id="v-1884" fill="#111111" rx="3" ry="3" pointer-events="none" width="169.3751220703125" height="90.83927154541016" transform="matrix(1,0,0,1,-83.9,-45.5)"></rect><text joint-selector="text" id="v-1883" font-size="24px" xml:space="preserve" y="0.8em" fill="#cccccc" text-anchor="middle" pointer-events="none" font-family="Open Sans, Tahoma, Arial" font-weight="normal" transform="matrix(1,0,0,1,0,-39.1)"><tspan dy="0" >3: 3. Load blast</tspan><tspan dy="1.2em" x="0" >plan event</tspan><tspan dy="1.2em" x="0" >stream</tspan></text></g><g id="v-1881"  label-idx="1" cursor="move" transform="matrix(1,0,0,1,2250,542.7999877929688)" style="cursor: default;"><rect joint-selector="rect" id="v-1886" fill="#111111" rx="3" ry="3"  pointer-events="none" width="136.83236694335938" height="23.011807441711426" transform="matrix(1,0,0,1,-68.4,-11.5)" style="display: block;"></rect><text joint-selector="text" id="v-1885" font-size="16.799999999999997px" xml:space="preserve" y="0.8em" fill="#cccccc" text-anchor="middle" pointer-events="none"  font-family="Open Sans, Tahoma, Arial" font-weight="normal" transform="matrix(1,0,0,1,0,-7)" style="display: block;"><tspan dy="0" >[Cosmos DB SDK]</tspan></text></g><g id="v-1882"  label-idx="2" cursor="move" transform="matrix(1,0,0,1,2240,551.2000122070312)" style="cursor: default;"><rect joint-selector="rect" id="v-1888" fill="#ffffff" rx="3" ry="3"  width="0" height="0" transform="matrix(1,0,0,1,0,0)" display="none"></rect><text joint-selector="text" id="v-1887" fill="#000000" font-size="14" text-anchor="middle" pointer-events="none"></text></g></g><g  display="none" style="display: none;"><g  transform="translate(2250, 499)" id="v-1981"><circle  idx="0" r="10"></circle><path  idx="0" d="M16,5.333c-7.732,0-14,4.701-14,10.5c0,1.982,0.741,3.833,2.016,5.414L2,25.667l5.613-1.441c2.339,1.317,5.237,2.107,8.387,2.107c7.732,0,14-4.701,14-10.5C30,10.034,23.732,5.333,16,5.333z" transform="translate(5, -33)"></path><path  idx="0" transform="scale(.8) translate(9.5, -37)" d="M24.778,21.419 19.276,15.917 24.777,10.415 21.949,7.585 16.447,13.087 10.945,7.585 8.117,10.415 13.618,15.917 8.116,21.419 10.946,24.248 16.447,18.746 21.948,24.248z"><title>Remove vertex.</title></path></g></g><g  id="v-1893" display="none"><g  id="v-1878"><path  end="source" d="M 26 0 L 0 13 L 26 26 z"></path></g><g  id="v-1879"><path  end="target" d="M 26 0 L 0 13 L 26 26 z"></path></g></g><g  id="v-1892" display="none"><g  id="v-1876" transform="translate(2137.175322531106, 453.7646671045527) "><g  event="remove"><circle r="11"></circle><path transform="scale(.8) translate(-16, -16)" d="M24.778,21.419 19.276,15.917 24.777,10.415 21.949,7.585 16.447,13.087 10.945,7.585 8.117,10.415 13.618,15.917 8.116,21.419 10.946,24.248 16.447,18.746 21.948,24.248z"></path><title>Remove link.</title></g><g  event="link:options"><circle r="11" transform="translate(25)"></circle><path fill="white" transform="scale(.55) translate(29, -16)" d="M31.229,17.736c0.064-0.571,0.104-1.148,0.104-1.736s-0.04-1.166-0.104-1.737l-4.377-1.557c-0.218-0.716-0.504-1.401-0.851-2.05l1.993-4.192c-0.725-0.91-1.549-1.734-2.458-2.459l-4.193,1.994c-0.647-0.347-1.334-0.632-2.049-0.849l-1.558-4.378C17.165,0.708,16.588,0.667,16,0.667s-1.166,0.041-1.737,0.105L12.707,5.15c-0.716,0.217-1.401,0.502-2.05,0.849L6.464,4.005C5.554,4.73,4.73,5.554,4.005,6.464l1.994,4.192c-0.347,0.648-0.632,1.334-0.849,2.05l-4.378,1.557C0.708,14.834,0.667,15.412,0.667,16s0.041,1.165,0.105,1.736l4.378,1.558c0.217,0.715,0.502,1.401,0.849,2.049l-1.994,4.193c0.725,0.909,1.549,1.733,2.459,2.458l4.192-1.993c0.648,0.347,1.334,0.633,2.05,0.851l1.557,4.377c0.571,0.064,1.148,0.104,1.737,0.104c0.588,0,1.165-0.04,1.736-0.104l1.558-4.377c0.715-0.218,1.399-0.504,2.049-0.851l4.193,1.993c0.909-0.725,1.733-1.549,2.458-2.458l-1.993-4.193c0.347-0.647,0.633-1.334,0.851-2.049L31.229,17.736zM16,20.871c-2.69,0-4.872-2.182-4.872-4.871c0-2.69,2.182-4.872,4.872-4.872c2.689,0,4.871,2.182,4.871,4.872C20.871,18.689,18.689,20.871,16,20.871z"></path><title>Link options.</title></g></g></g></g><!--z-index:33--><g   id="j_135" ><path  stroke="#cccccc" d="M 2100 259 L 2241 203 C 2247 200.33333333333331 2253 200.33333333333331 2259 203 L 2400 259" id="v-1910" stroke-width="2" stroke-dasharray="8 8" fill="none"></path><path  fill="black" stroke="black" d="M 0 0 0 0" transform="matrix(0.9284766089996245,-0.3713908810681253,0.3713908810681253,0.9284766089996245,2100,259)"></path><path  fill="#cccccc" stroke="#cccccc" d="M 20 0 L 0 10 L 20 20 z" id="v-1912" transform="matrix(-0.928476707906966,-0.3713906337998342,0.3713906337998342,-0.928476707906966,2396.286192772321,268.2847604532008)"></path><path  d="M 2100 259 L 2241 203 C 2247 200.33333333333331 2253 200.33333333333331 2259 203 L 2400 259" id="v-1911" fill="none" style="cursor: auto; pointer-events: visiblepainted;"></path><g ><g id="v-1901"  label-idx="0" cursor="move" transform="matrix(1,0,0,1,2250,187.60000610351562)" style="cursor: default;"><rect joint-selector="rect" id="v-1905" fill="#111111" rx="3" ry="3" pointer-events="none" width="196.29400634765625" height="90.83927154541016" transform="matrix(1,0,0,1,-98.8,-45.5)"></rect><text joint-selector="text" id="v-1904" font-size="24px" xml:space="preserve" y="0.8em" fill="#cccccc" text-anchor="middle" pointer-events="none" font-family="Open Sans, Tahoma, Arial" font-weight="normal" transform="matrix(1,0,0,1,0,-39.1)"><tspan dy="0" >4: 4. Append Blas</tspan><tspan dy="1.2em" x="0" >tPlanApproved</tspan><tspan dy="1.2em" x="0" >event</tspan></text></g><g id="v-1902"  label-idx="1" cursor="move" transform="matrix(1,0,0,1,2250,246.8000030517578)" style="cursor: default;"><rect joint-selector="rect" id="v-1907" fill="#111111" rx="3" ry="3"  pointer-events="none" width="136.83236694335938" height="23.011807441711426" transform="matrix(1,0,0,1,-68.4,-11.5)" style="display: block;"></rect><text joint-selector="text" id="v-1906" font-size="16.799999999999997px" xml:space="preserve" y="0.8em" fill="#cccccc" text-anchor="middle" pointer-events="none"  font-family="Open Sans, Tahoma, Arial" font-weight="normal" transform="matrix(1,0,0,1,0,-7)" style="display: block;"><tspan dy="0" >[Cosmos DB SDK]</tspan></text></g><g id="v-1903"  label-idx="2" cursor="move" transform="matrix(1,0,0,1,2240,255.1999969482422)" style="cursor: default;"><rect joint-selector="rect" id="v-1909" fill="#ffffff" rx="3" ry="3"  width="0" height="0" transform="matrix(1,0,0,1,0,0)" display="none"></rect><text joint-selector="text" id="v-1908" fill="#000000" font-size="14" text-anchor="middle" pointer-events="none"></text></g></g><g  display="none" style="display: none;"><g  transform="translate(2250, 199)" id="v-1982"><circle  idx="0" r="10"></circle><path  idx="0" d="M16,5.333c-7.732,0-14,4.701-14,10.5c0,1.982,0.741,3.833,2.016,5.414L2,25.667l5.613-1.441c2.339,1.317,5.237,2.107,8.387,2.107c7.732,0,14-4.701,14-10.5C30,10.034,23.732,5.333,16,5.333z" transform="translate(5, -33)"></path><path  idx="0" transform="scale(.8) translate(9.5, -37)" d="M24.778,21.419 19.276,15.917 24.777,10.415 21.949,7.585 16.447,13.087 10.945,7.585 8.117,10.415 13.618,15.917 8.116,21.419 10.946,24.248 16.447,18.746 21.948,24.248z"><title>Remove vertex.</title></path></g></g><g  id="v-1914" display="none"><g  id="v-1899"><path  end="source" d="M 26 0 L 0 13 L 26 26 z"></path></g><g  id="v-1900"><path  end="target" d="M 26 0 L 0 13 L 26 26 z"></path></g></g><g  id="v-1913" display="none"><g  id="v-1897" transform="translate(2137.175322531106, 244.23533289544736) "><g  event="remove"><circle r="11"></circle><path transform="scale(.8) translate(-16, -16)" d="M24.778,21.419 19.276,15.917 24.777,10.415 21.949,7.585 16.447,13.087 10.945,7.585 8.117,10.415 13.618,15.917 8.116,21.419 10.946,24.248 16.447,18.746 21.948,24.248z"></path><title>Remove link.</title></g><g  event="link:options"><circle r="11" transform="translate(25)"></circle><path fill="white" transform="scale(.55) translate(29, -16)" d="M31.229,17.736c0.064-0.571,0.104-1.148,0.104-1.736s-0.04-1.166-0.104-1.737l-4.377-1.557c-0.218-0.716-0.504-1.401-0.851-2.05l1.993-4.192c-0.725-0.91-1.549-1.734-2.458-2.459l-4.193,1.994c-0.647-0.347-1.334-0.632-2.049-0.849l-1.558-4.378C17.165,0.708,16.588,0.667,16,0.667s-1.166,0.041-1.737,0.105L12.707,5.15c-0.716,0.217-1.401,0.502-2.05,0.849L6.464,4.005C5.554,4.73,4.73,5.554,4.005,6.464l1.994,4.192c-0.347,0.648-0.632,1.334-0.849,2.05l-4.378,1.557C0.708,14.834,0.667,15.412,0.667,16s0.041,1.165,0.105,1.736l4.378,1.558c0.217,0.715,0.502,1.401,0.849,2.049l-1.994,4.193c0.725,0.909,1.549,1.733,2.459,2.458l4.192-1.993c0.648,0.347,1.334,0.633,2.05,0.851l1.557,4.377c0.571,0.064,1.148,0.104,1.737,0.104c0.588,0,1.165-0.04,1.736-0.104l1.558-4.377c0.715-0.218,1.399-0.504,2.049-0.851l4.193,1.993c0.909-0.725,1.733-1.549,2.458-2.458l-1.993-4.193c0.347-0.647,0.633-1.334,0.851-2.049L31.229,17.736zM16,20.871c-2.69,0-4.872-2.182-4.872-4.871c0-2.69,2.182-4.872,4.872-4.872c2.689,0,4.871,2.182,4.871,4.872C20.871,18.689,18.689,20.871,16,20.871z"></path><title>Link options.</title></g></g></g></g><!--z-index:34--><g   id="j_136" ><path  stroke="#cccccc" d="M 2063 499 L 2438 799" id="v-1933" stroke-width="2" stroke-dasharray="8 8" fill="none"></path><path  fill="black" stroke="black" d="M 0 0 0 0" transform="matrix(0.7808688000832672,0.624695059254128,-0.624695059254128,0.7808688000832672,2062.5,499)"></path><path  fill="#cccccc" stroke="#cccccc" d="M 20 0 L 0 10 L 20 20 z" id="v-1935" transform="matrix(-0.7808688416748548,-0.6246950072646416,0.6246950072646416,-0.7808688416748548,2431.253144594102,806.8086902472074)"></path><path  d="M 2063 499 L 2438 799" id="v-1934" fill="none" style="cursor: auto; pointer-events: visiblepainted;"></path><g ><g id="v-1924"  label-idx="0" cursor="move" transform="matrix(1,0,0,1,2250.5,635.5999755859375)" style="cursor: default;"><rect joint-selector="rect" id="v-1928" fill="#111111" rx="3" ry="3" pointer-events="none" width="197.3048858642578" height="90.83927154541016" transform="matrix(1,0,0,1,-97.8,-45.5)"></rect><text joint-selector="text" id="v-1927" font-size="24px" xml:space="preserve" y="0.8em" fill="#cccccc" text-anchor="middle" pointer-events="none" font-family="Open Sans, Tahoma, Arial" font-weight="normal" transform="matrix(1,0,0,1,0,-39.1)"><tspan dy="0" >5: 5. Publish Blast</tspan><tspan dy="1.2em" x="0" >PlanApproved</tspan><tspan dy="1.2em" x="0" >event</tspan></text></g><g id="v-1925"  label-idx="1" cursor="move" transform="matrix(1,0,0,1,2250.5,694.7999877929688)" style="cursor: default;"><rect joint-selector="rect" id="v-1930" fill="#111111" rx="3" ry="3"  pointer-events="none" width="149.61669921875" height="23.011807441711426" transform="matrix(1,0,0,1,-74.8,-11.5)" style="display: block;"></rect><text joint-selector="text" id="v-1929" font-size="16.799999999999997px" xml:space="preserve" y="0.8em" fill="#cccccc" text-anchor="middle" pointer-events="none"  font-family="Open Sans, Tahoma, Arial" font-weight="normal" transform="matrix(1,0,0,1,0,-7)" style="display: block;"><tspan dy="0" >[Azure Service Bus]</tspan></text></g><g id="v-1926"  label-idx="2" cursor="move" transform="matrix(1,0,0,1,2240.5,703.2000122070312)" style="cursor: default;"><rect joint-selector="rect" id="v-1932" fill="#ffffff" rx="3" ry="3"  width="0" height="0" transform="matrix(1,0,0,1,0,0)" display="none"></rect><text joint-selector="text" id="v-1931" fill="#000000" font-size="14" text-anchor="middle" pointer-events="none"></text></g></g><g  display="none" style="display: none;"></g><g  id="v-1937" display="none"><g  id="v-1922"><path  end="source" d="M 26 0 L 0 13 L 26 26 z"></path></g><g  id="v-1923"><path  end="target" d="M 26 0 L 0 13 L 26 26 z"></path></g></g><g  id="v-1936" display="none"><g  id="v-1921" transform="translate(2094.2347523777216, 523.987801902177) "><g  event="remove"><circle r="11"></circle><path transform="scale(.8) translate(-16, -16)" d="M24.778,21.419 19.276,15.917 24.777,10.415 21.949,7.585 16.447,13.087 10.945,7.585 8.117,10.415 13.618,15.917 8.116,21.419 10.946,24.248 16.447,18.746 21.948,24.248z"></path><title>Remove link.</title></g><g  event="link:options"><circle r="11" transform="translate(25)"></circle><path fill="white" transform="scale(.55) translate(29, -16)" d="M31.229,17.736c0.064-0.571,0.104-1.148,0.104-1.736s-0.04-1.166-0.104-1.737l-4.377-1.557c-0.218-0.716-0.504-1.401-0.851-2.05l1.993-4.192c-0.725-0.91-1.549-1.734-2.458-2.459l-4.193,1.994c-0.647-0.347-1.334-0.632-2.049-0.849l-1.558-4.378C17.165,0.708,16.588,0.667,16,0.667s-1.166,0.041-1.737,0.105L12.707,5.15c-0.716,0.217-1.401,0.502-2.05,0.849L6.464,4.005C5.554,4.73,4.73,5.554,4.005,6.464l1.994,4.192c-0.347,0.648-0.632,1.334-0.849,2.05l-4.378,1.557C0.708,14.834,0.667,15.412,0.667,16s0.041,1.165,0.105,1.736l4.378,1.558c0.217,0.715,0.502,1.401,0.849,2.049l-1.994,4.193c0.725,0.909,1.549,1.733,2.459,2.458l4.192-1.993c0.648,0.347,1.334,0.633,2.05,0.851l1.557,4.377c0.571,0.064,1.148,0.104,1.737,0.104c0.588,0,1.165-0.04,1.736-0.104l1.558-4.377c0.715-0.218,1.399-0.504,2.049-0.851l4.193,1.993c0.909-0.725,1.733-1.549,2.458-2.458l-1.993-4.193c0.347-0.647,0.633-1.334,0.851-2.049L31.229,17.736zM16,20.871c-2.69,0-4.872-2.182-4.872-4.871c0-2.69,2.182-4.872,4.872-4.872c2.689,0,4.871,2.182,4.871,4.872C20.871,18.689,18.689,20.871,16,20.871z"></path><title>Link options.</title></g></g></g></g><!--z-index:35--><g   id="j_137" ><path  stroke="#cccccc" d="M 2100 1159 L 2400 1039" id="v-1956" stroke-width="2" stroke-dasharray="8 8" fill="none"></path><path  fill="black" stroke="black" d="M 0 0 0 0" transform="matrix(0.9284766089996245,-0.3713908810681253,0.3713908810681253,0.9284766089996245,2100,1159)"></path><path  fill="#cccccc" stroke="#cccccc" d="M 20 0 L 0 10 L 20 20 z" id="v-1958" transform="matrix(-0.928476707906966,0.37139063379983406,-0.37139063379983406,-0.928476707906966,2403.714005448318,1048.2847279285713)"></path><path  d="M 2100 1159 L 2400 1039" id="v-1957" fill="none" style="cursor: auto; pointer-events: visiblepainted;"></path><g ><g id="v-1947"  label-idx="0" cursor="move" transform="matrix(1,0,0,1,2250,1085.5999755859375)" style="cursor: default;"><rect joint-selector="rect" id="v-1951" fill="#111111" rx="3" ry="3" pointer-events="none" width="199.9749755859375" height="90.83927154541016" transform="matrix(1,0,0,1,-99.2,-45.5)"></rect><text joint-selector="text" id="v-1950" font-size="24px" xml:space="preserve" y="0.8em" fill="#cccccc" text-anchor="middle" pointer-events="none" font-family="Open Sans, Tahoma, Arial" font-weight="normal" transform="matrix(1,0,0,1,0,-39.1)"><tspan dy="0" >6: 6. Receive Blast</tspan><tspan dy="1.2em" x="0" >PlanApproved</tspan><tspan dy="1.2em" x="0" >event</tspan></text></g><g id="v-1948"  label-idx="1" cursor="move" transform="matrix(1,0,0,1,2250,1144.800048828125)" style="cursor: default;"><rect joint-selector="rect" id="v-1953" fill="#111111" rx="3" ry="3"  pointer-events="none" width="149.61669921875" height="23.011807441711426" transform="matrix(1,0,0,1,-74.8,-11.5)" style="display: block;"></rect><text joint-selector="text" id="v-1952" font-size="16.799999999999997px" xml:space="preserve" y="0.8em" fill="#cccccc" text-anchor="middle" pointer-events="none"  font-family="Open Sans, Tahoma, Arial" font-weight="normal" transform="matrix(1,0,0,1,0,-7)" style="display: block;"><tspan dy="0" >[Azure Service Bus]</tspan></text></g><g id="v-1949"  label-idx="2" cursor="move" transform="matrix(1,0,0,1,2240,1153.199951171875)" style="cursor: default;"><rect joint-selector="rect" id="v-1955" fill="#ffffff" rx="3" ry="3"  width="0" height="0" transform="matrix(1,0,0,1,0,0)" display="none"></rect><text joint-selector="text" id="v-1954" fill="#000000" font-size="14" text-anchor="middle" pointer-events="none"></text></g></g><g  display="none" style="display: none;"></g><g  id="v-1960" display="none"><g  id="v-1945"><path  end="source" d="M 26 0 L 0 13 L 26 26 z"></path></g><g  id="v-1946"><path  end="target" d="M 26 0 L 0 13 L 26 26 z"></path></g></g><g  id="v-1959" display="none"><g  id="v-1944" transform="translate(2137.1390676354104, 1144.1443729458358) "><g  event="remove"><circle r="11"></circle><path transform="scale(.8) translate(-16, -16)" d="M24.778,21.419 19.276,15.917 24.777,10.415 21.949,7.585 16.447,13.087 10.945,7.585 8.117,10.415 13.618,15.917 8.116,21.419 10.946,24.248 16.447,18.746 21.948,24.248z"></path><title>Remove link.</title></g><g  event="link:options"><circle r="11" transform="translate(25)"></circle><path fill="white" transform="scale(.55) translate(29, -16)" d="M31.229,17.736c0.064-0.571,0.104-1.148,0.104-1.736s-0.04-1.166-0.104-1.737l-4.377-1.557c-0.218-0.716-0.504-1.401-0.851-2.05l1.993-4.192c-0.725-0.91-1.549-1.734-2.458-2.459l-4.193,1.994c-0.647-0.347-1.334-0.632-2.049-0.849l-1.558-4.378C17.165,0.708,16.588,0.667,16,0.667s-1.166,0.041-1.737,0.105L12.707,5.15c-0.716,0.217-1.401,0.502-2.05,0.849L6.464,4.005C5.554,4.73,4.73,5.554,4.005,6.464l1.994,4.192c-0.347,0.648-0.632,1.334-0.849,2.05l-4.378,1.557C0.708,14.834,0.667,15.412,0.667,16s0.041,1.165,0.105,1.736l4.378,1.558c0.217,0.715,0.502,1.401,0.849,2.049l-1.994,4.193c0.725,0.909,1.549,1.733,2.459,2.458l4.192-1.993c0.648,0.347,1.334,0.633,2.05,0.851l1.557,4.377c0.571,0.064,1.148,0.104,1.737,0.104c0.588,0,1.165-0.04,1.736-0.104l1.558-4.377c0.715-0.218,1.399-0.504,2.049-0.851l4.193,1.993c0.909-0.725,1.733-1.549,2.458-2.458l-1.993-4.193c0.347-0.647,0.633-1.334,0.851-2.049L31.229,17.736zM16,20.871c-2.69,0-4.872-2.182-4.872-4.871c0-2.69,2.182-4.872,4.872-4.872c2.689,0,4.871,2.182,4.871,4.872C20.871,18.689,18.689,20.871,16,20.871z"></path><title>Link options.</title></g></g></g></g><!--z-index:36--><g   id="j_138" ><path  stroke="#cccccc" d="M 2100 1339 L 2400 1459" id="v-1976" stroke-width="2" stroke-dasharray="8 8" fill="none"></path><path  fill="black" stroke="black" d="M 0 0 0 0" transform="matrix(0.9284766955435519,0.371390664708372,-0.371390664708372,0.9284766955435519,2100,1339)"></path><path  fill="#cccccc" stroke="#cccccc" d="M 20 0 L 0 10 L 20 20 z" id="v-1978" transform="matrix(-0.928476707906966,-0.3713906337998342,0.3713906337998342,-0.928476707906966,2396.286192772321,1468.284806229568)"></path><path  d="M 2100 1339 L 2400 1459" id="v-1977" fill="none" style="cursor: auto; pointer-events: visiblepainted;"></path><g ><g id="v-1967"  label-idx="0" cursor="move" transform="matrix(1,0,0,1,2250,1385.5999755859375)" style="cursor: default;"><rect joint-selector="rect" id="v-1971" fill="#111111" rx="3" ry="3" pointer-events="none" width="196.60231018066406" height="62.03927993774414" transform="matrix(1,0,0,1,-97.5,-31.1)"></rect><text joint-selector="text" id="v-1970" font-size="24px" xml:space="preserve" y="0.8em" fill="#cccccc" text-anchor="middle" pointer-events="none" font-family="Open Sans, Tahoma, Arial" font-weight="normal" transform="matrix(1,0,0,1,0,-24.7)"><tspan dy="0" >7: 7. Update blast</tspan><tspan dy="1.2em" x="0" >plan projection</tspan></text></g><g id="v-1968"  label-idx="1" cursor="move" transform="matrix(1,0,0,1,2250,1430.4000244140625)" style="cursor: default;"><rect joint-selector="rect" id="v-1973" fill="#111111" rx="3" ry="3"  pointer-events="none" width="42.06846237182617" height="23.011807441711426" transform="matrix(1,0,0,1,-21,-11.5)" style="display: block;"></rect><text joint-selector="text" id="v-1972" font-size="16.799999999999997px" xml:space="preserve" y="0.8em" fill="#cccccc" text-anchor="middle" pointer-events="none"  font-family="Open Sans, Tahoma, Arial" font-weight="normal" transform="matrix(1,0,0,1,0,-7)" style="display: block;"><tspan dy="0" >[SQL]</tspan></text></g><g id="v-1969"  label-idx="2" cursor="move" transform="matrix(1,0,0,1,2240,1438.800048828125)" style="cursor: default;"><rect joint-selector="rect" id="v-1975" fill="#ffffff" rx="3" ry="3"  width="0" height="0" transform="matrix(1,0,0,1,0,0)" display="none"></rect><text joint-selector="text" id="v-1974" fill="#000000" font-size="14" text-anchor="middle" pointer-events="none"></text></g></g><g  display="none" style="display: none;"></g><g  id="v-1980" display="none"><g  id="v-1965"><path  end="source" d="M 26 0 L 0 13 L 26 26 z"></path></g><g  id="v-1966"><path  end="target" d="M 26 0 L 0 13 L 26 26 z"></path></g></g><g  id="v-1979" display="none"><g  id="v-1964" transform="translate(2137.1390676354104, 1353.855627054164) "><g  event="remove"><circle r="11"></circle><path transform="scale(.8) translate(-16, -16)" d="M24.778,21.419 19.276,15.917 24.777,10.415 21.949,7.585 16.447,13.087 10.945,7.585 8.117,10.415 13.618,15.917 8.116,21.419 10.946,24.248 16.447,18.746 21.948,24.248z"></path><title>Remove link.</title></g><g  event="link:options"><circle r="11" transform="translate(25)"></circle><path fill="white" transform="scale(.55) translate(29, -16)" d="M31.229,17.736c0.064-0.571,0.104-1.148,0.104-1.736s-0.04-1.166-0.104-1.737l-4.377-1.557c-0.218-0.716-0.504-1.401-0.851-2.05l1.993-4.192c-0.725-0.91-1.549-1.734-2.458-2.459l-4.193,1.994c-0.647-0.347-1.334-0.632-2.049-0.849l-1.558-4.378C17.165,0.708,16.588,0.667,16,0.667s-1.166,0.041-1.737,0.105L12.707,5.15c-0.716,0.217-1.401,0.502-2.05,0.849L6.464,4.005C5.554,4.73,4.73,5.554,4.005,6.464l1.994,4.192c-0.347,0.648-0.632,1.334-0.849,2.05l-4.378,1.557C0.708,14.834,0.667,15.412,0.667,16s0.041,1.165,0.105,1.736l4.378,1.558c0.217,0.715,0.502,1.401,0.849,2.049l-1.994,4.193c0.725,0.909,1.549,1.733,2.459,2.458l4.192-1.993c0.648,0.347,1.334,0.633,2.05,0.851l1.557,4.377c0.571,0.064,1.148,0.104,1.737,0.104c0.588,0,1.165-0.04,1.736-0.104l1.558-4.377c0.715-0.218,1.399-0.504,2.049-0.851l4.193,1.993c0.909-0.725,1.733-1.549,2.458-2.458l-1.993-4.193c0.347-0.647,0.633-1.334,0.851-2.049L31.229,17.736zM16,20.871c-2.69,0-4.872-2.182-4.872-4.871c0-2.69,2.182-4.872,4.872-4.872c2.689,0,4.871,2.182,4.871,4.872C20.871,18.689,18.689,20.871,16,20.871z"></path><title>Link options.</title></g></g></g></g><!--z-index:37--><!--z-index:38--><!--z-index:39--><!--z-index:40--><!--z-index:41--><!--z-index:42--></g><g ></g><g ></g><g ></g></g></svg>